<?xml version="1.0" encoding="utf-8" standalone="no"?>
<!DOCTYPE svg PUBLIC "-//W3C//DTD SVG 1.1//EN"
  "http://www.w3.org/Graphics/SVG/1.1/DTD/svg11.dtd">
<svg xmlns:xlink="http://www.w3.org/1999/xlink" width="540pt" height="252pt" viewBox="0 0 540 252" xmlns="http://www.w3.org/2000/svg" version="1.1">
 <metadata>
  <rdf:RDF xmlns:dc="http://purl.org/dc/elements/1.1/" xmlns:cc="http://creativecommons.org/ns#" xmlns:rdf="http://www.w3.org/1999/02/22-rdf-syntax-ns#">
   <cc:Work>
    <dc:type rdf:resource="http://purl.org/dc/dcmitype/StillImage"/>
    <dc:date>2024-01-23T19:39:21.791786</dc:date>
    <dc:format>image/svg+xml</dc:format>
    <dc:creator>
     <cc:Agent>
      <dc:title>Matplotlib v3.5.1, https://matplotlib.org/</dc:title>
     </cc:Agent>
    </dc:creator>
   </cc:Work>
  </rdf:RDF>
 </metadata>
 <defs>
  <style type="text/css">*{stroke-linejoin: round; stroke-linecap: butt}</style>
 </defs>
 <g id="figure_1">
  <g id="patch_1">
   <path d="M 0 252 
L 540 252 
L 540 0 
L 0 0 
z
" style="fill: #ffffff"/>
  </g>
  <g id="axes_1">
   <g id="patch_2">
    <path d="M 36.8875 224.24375 
L 526.699449 224.24375 
L 526.699449 25.918125 
L 36.8875 25.918125 
z
" style="fill: #ffffff"/>
   </g>
   <g id="matplotlib.axis_1">
    <g id="xtick_1">
     <g id="line2d_1">
      <defs>
       <path id="m94e51a01a8" d="M 0 0 
L 0 3.5 
" style="stroke: #000000; stroke-width: 0.8"/>
      </defs>
      <g>
       <use xlink:href="#m94e51a01a8" x="51.293734" y="224.24375" style="stroke: #000000; stroke-width: 0.8"/>
      </g>
     </g>
     <g id="text_1">
      <!-- dist_1 -->
      <g transform="translate(36.484359 238.842187)scale(0.1 -0.1)">
       <defs>
        <path id="DejaVuSans-64" d="M 2906 2969 
L 2906 4863 
L 3481 4863 
L 3481 0 
L 2906 0 
L 2906 525 
Q 2725 213 2448 61 
Q 2172 -91 1784 -91 
Q 1150 -91 751 415 
Q 353 922 353 1747 
Q 353 2572 751 3078 
Q 1150 3584 1784 3584 
Q 2172 3584 2448 3432 
Q 2725 3281 2906 2969 
z
M 947 1747 
Q 947 1113 1208 752 
Q 1469 391 1925 391 
Q 2381 391 2643 752 
Q 2906 1113 2906 1747 
Q 2906 2381 2643 2742 
Q 2381 3103 1925 3103 
Q 1469 3103 1208 2742 
Q 947 2381 947 1747 
z
" transform="scale(0.015625)"/>
        <path id="DejaVuSans-69" d="M 603 3500 
L 1178 3500 
L 1178 0 
L 603 0 
L 603 3500 
z
M 603 4863 
L 1178 4863 
L 1178 4134 
L 603 4134 
L 603 4863 
z
" transform="scale(0.015625)"/>
        <path id="DejaVuSans-73" d="M 2834 3397 
L 2834 2853 
Q 2591 2978 2328 3040 
Q 2066 3103 1784 3103 
Q 1356 3103 1142 2972 
Q 928 2841 928 2578 
Q 928 2378 1081 2264 
Q 1234 2150 1697 2047 
L 1894 2003 
Q 2506 1872 2764 1633 
Q 3022 1394 3022 966 
Q 3022 478 2636 193 
Q 2250 -91 1575 -91 
Q 1294 -91 989 -36 
Q 684 19 347 128 
L 347 722 
Q 666 556 975 473 
Q 1284 391 1588 391 
Q 1994 391 2212 530 
Q 2431 669 2431 922 
Q 2431 1156 2273 1281 
Q 2116 1406 1581 1522 
L 1381 1569 
Q 847 1681 609 1914 
Q 372 2147 372 2553 
Q 372 3047 722 3315 
Q 1072 3584 1716 3584 
Q 2034 3584 2315 3537 
Q 2597 3491 2834 3397 
z
" transform="scale(0.015625)"/>
        <path id="DejaVuSans-74" d="M 1172 4494 
L 1172 3500 
L 2356 3500 
L 2356 3053 
L 1172 3053 
L 1172 1153 
Q 1172 725 1289 603 
Q 1406 481 1766 481 
L 2356 481 
L 2356 0 
L 1766 0 
Q 1100 0 847 248 
Q 594 497 594 1153 
L 594 3053 
L 172 3053 
L 172 3500 
L 594 3500 
L 594 4494 
L 1172 4494 
z
" transform="scale(0.015625)"/>
        <path id="DejaVuSans-5f" d="M 3263 -1063 
L 3263 -1509 
L -63 -1509 
L -63 -1063 
L 3263 -1063 
z
" transform="scale(0.015625)"/>
        <path id="DejaVuSans-31" d="M 794 531 
L 1825 531 
L 1825 4091 
L 703 3866 
L 703 4441 
L 1819 4666 
L 2450 4666 
L 2450 531 
L 3481 531 
L 3481 0 
L 794 0 
L 794 531 
z
" transform="scale(0.015625)"/>
       </defs>
       <use xlink:href="#DejaVuSans-64"/>
       <use xlink:href="#DejaVuSans-69" x="63.476562"/>
       <use xlink:href="#DejaVuSans-73" x="91.259766"/>
       <use xlink:href="#DejaVuSans-74" x="143.359375"/>
       <use xlink:href="#DejaVuSans-5f" x="182.568359"/>
       <use xlink:href="#DejaVuSans-31" x="232.568359"/>
      </g>
     </g>
    </g>
    <g id="xtick_2">
     <g id="line2d_2">
      <g>
       <use xlink:href="#m94e51a01a8" x="80.106201" y="224.24375" style="stroke: #000000; stroke-width: 0.8"/>
      </g>
     </g>
     <g id="text_2">
      <!-- dist_10 -->
      <g transform="translate(62.115576 238.842187)scale(0.1 -0.1)">
       <defs>
        <path id="DejaVuSans-30" d="M 2034 4250 
Q 1547 4250 1301 3770 
Q 1056 3291 1056 2328 
Q 1056 1369 1301 889 
Q 1547 409 2034 409 
Q 2525 409 2770 889 
Q 3016 1369 3016 2328 
Q 3016 3291 2770 3770 
Q 2525 4250 2034 4250 
z
M 2034 4750 
Q 2819 4750 3233 4129 
Q 3647 3509 3647 2328 
Q 3647 1150 3233 529 
Q 2819 -91 2034 -91 
Q 1250 -91 836 529 
Q 422 1150 422 2328 
Q 422 3509 836 4129 
Q 1250 4750 2034 4750 
z
" transform="scale(0.015625)"/>
       </defs>
       <use xlink:href="#DejaVuSans-64"/>
       <use xlink:href="#DejaVuSans-69" x="63.476562"/>
       <use xlink:href="#DejaVuSans-73" x="91.259766"/>
       <use xlink:href="#DejaVuSans-74" x="143.359375"/>
       <use xlink:href="#DejaVuSans-5f" x="182.568359"/>
       <use xlink:href="#DejaVuSans-31" x="232.568359"/>
       <use xlink:href="#DejaVuSans-30" x="296.191406"/>
      </g>
     </g>
    </g>
    <g id="xtick_3">
     <g id="line2d_3">
      <g>
       <use xlink:href="#m94e51a01a8" x="108.918669" y="224.24375" style="stroke: #000000; stroke-width: 0.8"/>
      </g>
     </g>
     <g id="text_3">
      <!-- dist_11 -->
      <g transform="translate(90.928044 238.842187)scale(0.1 -0.1)">
       <use xlink:href="#DejaVuSans-64"/>
       <use xlink:href="#DejaVuSans-69" x="63.476562"/>
       <use xlink:href="#DejaVuSans-73" x="91.259766"/>
       <use xlink:href="#DejaVuSans-74" x="143.359375"/>
       <use xlink:href="#DejaVuSans-5f" x="182.568359"/>
       <use xlink:href="#DejaVuSans-31" x="232.568359"/>
       <use xlink:href="#DejaVuSans-31" x="296.191406"/>
      </g>
     </g>
    </g>
    <g id="xtick_4">
     <g id="line2d_4">
      <g>
       <use xlink:href="#m94e51a01a8" x="137.731136" y="224.24375" style="stroke: #000000; stroke-width: 0.8"/>
      </g>
     </g>
     <g id="text_4">
      <!-- dist_12 -->
      <g transform="translate(119.740511 238.842187)scale(0.1 -0.1)">
       <defs>
        <path id="DejaVuSans-32" d="M 1228 531 
L 3431 531 
L 3431 0 
L 469 0 
L 469 531 
Q 828 903 1448 1529 
Q 2069 2156 2228 2338 
Q 2531 2678 2651 2914 
Q 2772 3150 2772 3378 
Q 2772 3750 2511 3984 
Q 2250 4219 1831 4219 
Q 1534 4219 1204 4116 
Q 875 4013 500 3803 
L 500 4441 
Q 881 4594 1212 4672 
Q 1544 4750 1819 4750 
Q 2544 4750 2975 4387 
Q 3406 4025 3406 3419 
Q 3406 3131 3298 2873 
Q 3191 2616 2906 2266 
Q 2828 2175 2409 1742 
Q 1991 1309 1228 531 
z
" transform="scale(0.015625)"/>
       </defs>
       <use xlink:href="#DejaVuSans-64"/>
       <use xlink:href="#DejaVuSans-69" x="63.476562"/>
       <use xlink:href="#DejaVuSans-73" x="91.259766"/>
       <use xlink:href="#DejaVuSans-74" x="143.359375"/>
       <use xlink:href="#DejaVuSans-5f" x="182.568359"/>
       <use xlink:href="#DejaVuSans-31" x="232.568359"/>
       <use xlink:href="#DejaVuSans-32" x="296.191406"/>
      </g>
     </g>
    </g>
    <g id="xtick_5">
     <g id="line2d_5">
      <g>
       <use xlink:href="#m94e51a01a8" x="166.543604" y="224.24375" style="stroke: #000000; stroke-width: 0.8"/>
      </g>
     </g>
     <g id="text_5">
      <!-- dist_13 -->
      <g transform="translate(148.552979 238.842187)scale(0.1 -0.1)">
       <defs>
        <path id="DejaVuSans-33" d="M 2597 2516 
Q 3050 2419 3304 2112 
Q 3559 1806 3559 1356 
Q 3559 666 3084 287 
Q 2609 -91 1734 -91 
Q 1441 -91 1130 -33 
Q 819 25 488 141 
L 488 750 
Q 750 597 1062 519 
Q 1375 441 1716 441 
Q 2309 441 2620 675 
Q 2931 909 2931 1356 
Q 2931 1769 2642 2001 
Q 2353 2234 1838 2234 
L 1294 2234 
L 1294 2753 
L 1863 2753 
Q 2328 2753 2575 2939 
Q 2822 3125 2822 3475 
Q 2822 3834 2567 4026 
Q 2313 4219 1838 4219 
Q 1578 4219 1281 4162 
Q 984 4106 628 3988 
L 628 4550 
Q 988 4650 1302 4700 
Q 1616 4750 1894 4750 
Q 2613 4750 3031 4423 
Q 3450 4097 3450 3541 
Q 3450 3153 3228 2886 
Q 3006 2619 2597 2516 
z
" transform="scale(0.015625)"/>
       </defs>
       <use xlink:href="#DejaVuSans-64"/>
       <use xlink:href="#DejaVuSans-69" x="63.476562"/>
       <use xlink:href="#DejaVuSans-73" x="91.259766"/>
       <use xlink:href="#DejaVuSans-74" x="143.359375"/>
       <use xlink:href="#DejaVuSans-5f" x="182.568359"/>
       <use xlink:href="#DejaVuSans-31" x="232.568359"/>
       <use xlink:href="#DejaVuSans-33" x="296.191406"/>
      </g>
     </g>
    </g>
    <g id="xtick_6">
     <g id="line2d_6">
      <g>
       <use xlink:href="#m94e51a01a8" x="195.356072" y="224.24375" style="stroke: #000000; stroke-width: 0.8"/>
      </g>
     </g>
     <g id="text_6">
      <!-- dist_14 -->
      <g transform="translate(177.365447 238.842187)scale(0.1 -0.1)">
       <defs>
        <path id="DejaVuSans-34" d="M 2419 4116 
L 825 1625 
L 2419 1625 
L 2419 4116 
z
M 2253 4666 
L 3047 4666 
L 3047 1625 
L 3713 1625 
L 3713 1100 
L 3047 1100 
L 3047 0 
L 2419 0 
L 2419 1100 
L 313 1100 
L 313 1709 
L 2253 4666 
z
" transform="scale(0.015625)"/>
       </defs>
       <use xlink:href="#DejaVuSans-64"/>
       <use xlink:href="#DejaVuSans-69" x="63.476562"/>
       <use xlink:href="#DejaVuSans-73" x="91.259766"/>
       <use xlink:href="#DejaVuSans-74" x="143.359375"/>
       <use xlink:href="#DejaVuSans-5f" x="182.568359"/>
       <use xlink:href="#DejaVuSans-31" x="232.568359"/>
       <use xlink:href="#DejaVuSans-34" x="296.191406"/>
      </g>
     </g>
    </g>
    <g id="xtick_7">
     <g id="line2d_7">
      <g>
       <use xlink:href="#m94e51a01a8" x="224.168539" y="224.24375" style="stroke: #000000; stroke-width: 0.8"/>
      </g>
     </g>
     <g id="text_7">
      <!-- dist_15 -->
      <g transform="translate(206.177914 238.842187)scale(0.1 -0.1)">
       <defs>
        <path id="DejaVuSans-35" d="M 691 4666 
L 3169 4666 
L 3169 4134 
L 1269 4134 
L 1269 2991 
Q 1406 3038 1543 3061 
Q 1681 3084 1819 3084 
Q 2600 3084 3056 2656 
Q 3513 2228 3513 1497 
Q 3513 744 3044 326 
Q 2575 -91 1722 -91 
Q 1428 -91 1123 -41 
Q 819 9 494 109 
L 494 744 
Q 775 591 1075 516 
Q 1375 441 1709 441 
Q 2250 441 2565 725 
Q 2881 1009 2881 1497 
Q 2881 1984 2565 2268 
Q 2250 2553 1709 2553 
Q 1456 2553 1204 2497 
Q 953 2441 691 2322 
L 691 4666 
z
" transform="scale(0.015625)"/>
       </defs>
       <use xlink:href="#DejaVuSans-64"/>
       <use xlink:href="#DejaVuSans-69" x="63.476562"/>
       <use xlink:href="#DejaVuSans-73" x="91.259766"/>
       <use xlink:href="#DejaVuSans-74" x="143.359375"/>
       <use xlink:href="#DejaVuSans-5f" x="182.568359"/>
       <use xlink:href="#DejaVuSans-31" x="232.568359"/>
       <use xlink:href="#DejaVuSans-35" x="296.191406"/>
      </g>
     </g>
    </g>
    <g id="xtick_8">
     <g id="line2d_8">
      <g>
       <use xlink:href="#m94e51a01a8" x="252.981007" y="224.24375" style="stroke: #000000; stroke-width: 0.8"/>
      </g>
     </g>
     <g id="text_8">
      <!-- dist_2 -->
      <g transform="translate(238.171632 238.842187)scale(0.1 -0.1)">
       <use xlink:href="#DejaVuSans-64"/>
       <use xlink:href="#DejaVuSans-69" x="63.476562"/>
       <use xlink:href="#DejaVuSans-73" x="91.259766"/>
       <use xlink:href="#DejaVuSans-74" x="143.359375"/>
       <use xlink:href="#DejaVuSans-5f" x="182.568359"/>
       <use xlink:href="#DejaVuSans-32" x="232.568359"/>
      </g>
     </g>
    </g>
    <g id="xtick_9">
     <g id="line2d_9">
      <g>
       <use xlink:href="#m94e51a01a8" x="281.793474" y="224.24375" style="stroke: #000000; stroke-width: 0.8"/>
      </g>
     </g>
     <g id="text_9">
      <!-- dist_21 -->
      <g transform="translate(263.802849 238.842187)scale(0.1 -0.1)">
       <use xlink:href="#DejaVuSans-64"/>
       <use xlink:href="#DejaVuSans-69" x="63.476562"/>
       <use xlink:href="#DejaVuSans-73" x="91.259766"/>
       <use xlink:href="#DejaVuSans-74" x="143.359375"/>
       <use xlink:href="#DejaVuSans-5f" x="182.568359"/>
       <use xlink:href="#DejaVuSans-32" x="232.568359"/>
       <use xlink:href="#DejaVuSans-31" x="296.191406"/>
      </g>
     </g>
    </g>
    <g id="xtick_10">
     <g id="line2d_10">
      <g>
       <use xlink:href="#m94e51a01a8" x="310.605942" y="224.24375" style="stroke: #000000; stroke-width: 0.8"/>
      </g>
     </g>
     <g id="text_10">
      <!-- dist_23 -->
      <g transform="translate(292.615317 238.842187)scale(0.1 -0.1)">
       <use xlink:href="#DejaVuSans-64"/>
       <use xlink:href="#DejaVuSans-69" x="63.476562"/>
       <use xlink:href="#DejaVuSans-73" x="91.259766"/>
       <use xlink:href="#DejaVuSans-74" x="143.359375"/>
       <use xlink:href="#DejaVuSans-5f" x="182.568359"/>
       <use xlink:href="#DejaVuSans-32" x="232.568359"/>
       <use xlink:href="#DejaVuSans-33" x="296.191406"/>
      </g>
     </g>
    </g>
    <g id="xtick_11">
     <g id="line2d_11">
      <g>
       <use xlink:href="#m94e51a01a8" x="339.418409" y="224.24375" style="stroke: #000000; stroke-width: 0.8"/>
      </g>
     </g>
     <g id="text_11">
      <!-- dist_3 -->
      <g transform="translate(324.609034 238.842187)scale(0.1 -0.1)">
       <use xlink:href="#DejaVuSans-64"/>
       <use xlink:href="#DejaVuSans-69" x="63.476562"/>
       <use xlink:href="#DejaVuSans-73" x="91.259766"/>
       <use xlink:href="#DejaVuSans-74" x="143.359375"/>
       <use xlink:href="#DejaVuSans-5f" x="182.568359"/>
       <use xlink:href="#DejaVuSans-33" x="232.568359"/>
      </g>
     </g>
    </g>
    <g id="xtick_12">
     <g id="line2d_12">
      <g>
       <use xlink:href="#m94e51a01a8" x="368.230877" y="224.24375" style="stroke: #000000; stroke-width: 0.8"/>
      </g>
     </g>
     <g id="text_12">
      <!-- dist_4 -->
      <g transform="translate(353.421502 238.842187)scale(0.1 -0.1)">
       <use xlink:href="#DejaVuSans-64"/>
       <use xlink:href="#DejaVuSans-69" x="63.476562"/>
       <use xlink:href="#DejaVuSans-73" x="91.259766"/>
       <use xlink:href="#DejaVuSans-74" x="143.359375"/>
       <use xlink:href="#DejaVuSans-5f" x="182.568359"/>
       <use xlink:href="#DejaVuSans-34" x="232.568359"/>
      </g>
     </g>
    </g>
    <g id="xtick_13">
     <g id="line2d_13">
      <g>
       <use xlink:href="#m94e51a01a8" x="397.043345" y="224.24375" style="stroke: #000000; stroke-width: 0.8"/>
      </g>
     </g>
     <g id="text_13">
      <!-- dist_5 -->
      <g transform="translate(382.23397 238.842187)scale(0.1 -0.1)">
       <use xlink:href="#DejaVuSans-64"/>
       <use xlink:href="#DejaVuSans-69" x="63.476562"/>
       <use xlink:href="#DejaVuSans-73" x="91.259766"/>
       <use xlink:href="#DejaVuSans-74" x="143.359375"/>
       <use xlink:href="#DejaVuSans-5f" x="182.568359"/>
       <use xlink:href="#DejaVuSans-35" x="232.568359"/>
      </g>
     </g>
    </g>
    <g id="xtick_14">
     <g id="line2d_14">
      <g>
       <use xlink:href="#m94e51a01a8" x="425.855812" y="224.24375" style="stroke: #000000; stroke-width: 0.8"/>
      </g>
     </g>
     <g id="text_14">
      <!-- dist_6 -->
      <g transform="translate(411.046437 238.842187)scale(0.1 -0.1)">
       <defs>
        <path id="DejaVuSans-36" d="M 2113 2584 
Q 1688 2584 1439 2293 
Q 1191 2003 1191 1497 
Q 1191 994 1439 701 
Q 1688 409 2113 409 
Q 2538 409 2786 701 
Q 3034 994 3034 1497 
Q 3034 2003 2786 2293 
Q 2538 2584 2113 2584 
z
M 3366 4563 
L 3366 3988 
Q 3128 4100 2886 4159 
Q 2644 4219 2406 4219 
Q 1781 4219 1451 3797 
Q 1122 3375 1075 2522 
Q 1259 2794 1537 2939 
Q 1816 3084 2150 3084 
Q 2853 3084 3261 2657 
Q 3669 2231 3669 1497 
Q 3669 778 3244 343 
Q 2819 -91 2113 -91 
Q 1303 -91 875 529 
Q 447 1150 447 2328 
Q 447 3434 972 4092 
Q 1497 4750 2381 4750 
Q 2619 4750 2861 4703 
Q 3103 4656 3366 4563 
z
" transform="scale(0.015625)"/>
       </defs>
       <use xlink:href="#DejaVuSans-64"/>
       <use xlink:href="#DejaVuSans-69" x="63.476562"/>
       <use xlink:href="#DejaVuSans-73" x="91.259766"/>
       <use xlink:href="#DejaVuSans-74" x="143.359375"/>
       <use xlink:href="#DejaVuSans-5f" x="182.568359"/>
       <use xlink:href="#DejaVuSans-36" x="232.568359"/>
      </g>
     </g>
    </g>
    <g id="xtick_15">
     <g id="line2d_15">
      <g>
       <use xlink:href="#m94e51a01a8" x="454.66828" y="224.24375" style="stroke: #000000; stroke-width: 0.8"/>
      </g>
     </g>
     <g id="text_15">
      <!-- dist_7 -->
      <g transform="translate(439.858905 238.842187)scale(0.1 -0.1)">
       <defs>
        <path id="DejaVuSans-37" d="M 525 4666 
L 3525 4666 
L 3525 4397 
L 1831 0 
L 1172 0 
L 2766 4134 
L 525 4134 
L 525 4666 
z
" transform="scale(0.015625)"/>
       </defs>
       <use xlink:href="#DejaVuSans-64"/>
       <use xlink:href="#DejaVuSans-69" x="63.476562"/>
       <use xlink:href="#DejaVuSans-73" x="91.259766"/>
       <use xlink:href="#DejaVuSans-74" x="143.359375"/>
       <use xlink:href="#DejaVuSans-5f" x="182.568359"/>
       <use xlink:href="#DejaVuSans-37" x="232.568359"/>
      </g>
     </g>
    </g>
    <g id="xtick_16">
     <g id="line2d_16">
      <g>
       <use xlink:href="#m94e51a01a8" x="483.480747" y="224.24375" style="stroke: #000000; stroke-width: 0.8"/>
      </g>
     </g>
     <g id="text_16">
      <!-- dist_8 -->
      <g transform="translate(468.671372 238.842187)scale(0.1 -0.1)">
       <defs>
        <path id="DejaVuSans-38" d="M 2034 2216 
Q 1584 2216 1326 1975 
Q 1069 1734 1069 1313 
Q 1069 891 1326 650 
Q 1584 409 2034 409 
Q 2484 409 2743 651 
Q 3003 894 3003 1313 
Q 3003 1734 2745 1975 
Q 2488 2216 2034 2216 
z
M 1403 2484 
Q 997 2584 770 2862 
Q 544 3141 544 3541 
Q 544 4100 942 4425 
Q 1341 4750 2034 4750 
Q 2731 4750 3128 4425 
Q 3525 4100 3525 3541 
Q 3525 3141 3298 2862 
Q 3072 2584 2669 2484 
Q 3125 2378 3379 2068 
Q 3634 1759 3634 1313 
Q 3634 634 3220 271 
Q 2806 -91 2034 -91 
Q 1263 -91 848 271 
Q 434 634 434 1313 
Q 434 1759 690 2068 
Q 947 2378 1403 2484 
z
M 1172 3481 
Q 1172 3119 1398 2916 
Q 1625 2713 2034 2713 
Q 2441 2713 2670 2916 
Q 2900 3119 2900 3481 
Q 2900 3844 2670 4047 
Q 2441 4250 2034 4250 
Q 1625 4250 1398 4047 
Q 1172 3844 1172 3481 
z
" transform="scale(0.015625)"/>
       </defs>
       <use xlink:href="#DejaVuSans-64"/>
       <use xlink:href="#DejaVuSans-69" x="63.476562"/>
       <use xlink:href="#DejaVuSans-73" x="91.259766"/>
       <use xlink:href="#DejaVuSans-74" x="143.359375"/>
       <use xlink:href="#DejaVuSans-5f" x="182.568359"/>
       <use xlink:href="#DejaVuSans-38" x="232.568359"/>
      </g>
     </g>
    </g>
    <g id="xtick_17">
     <g id="line2d_17">
      <g>
       <use xlink:href="#m94e51a01a8" x="512.293215" y="224.24375" style="stroke: #000000; stroke-width: 0.8"/>
      </g>
     </g>
     <g id="text_17">
      <!-- dist_9 -->
      <g transform="translate(497.48384 238.842187)scale(0.1 -0.1)">
       <defs>
        <path id="DejaVuSans-39" d="M 703 97 
L 703 672 
Q 941 559 1184 500 
Q 1428 441 1663 441 
Q 2288 441 2617 861 
Q 2947 1281 2994 2138 
Q 2813 1869 2534 1725 
Q 2256 1581 1919 1581 
Q 1219 1581 811 2004 
Q 403 2428 403 3163 
Q 403 3881 828 4315 
Q 1253 4750 1959 4750 
Q 2769 4750 3195 4129 
Q 3622 3509 3622 2328 
Q 3622 1225 3098 567 
Q 2575 -91 1691 -91 
Q 1453 -91 1209 -44 
Q 966 3 703 97 
z
M 1959 2075 
Q 2384 2075 2632 2365 
Q 2881 2656 2881 3163 
Q 2881 3666 2632 3958 
Q 2384 4250 1959 4250 
Q 1534 4250 1286 3958 
Q 1038 3666 1038 3163 
Q 1038 2656 1286 2365 
Q 1534 2075 1959 2075 
z
" transform="scale(0.015625)"/>
       </defs>
       <use xlink:href="#DejaVuSans-64"/>
       <use xlink:href="#DejaVuSans-69" x="63.476562"/>
       <use xlink:href="#DejaVuSans-73" x="91.259766"/>
       <use xlink:href="#DejaVuSans-74" x="143.359375"/>
       <use xlink:href="#DejaVuSans-5f" x="182.568359"/>
       <use xlink:href="#DejaVuSans-39" x="232.568359"/>
      </g>
     </g>
    </g>
   </g>
   <g id="matplotlib.axis_2">
    <g id="ytick_1">
     <g id="line2d_18">
      <defs>
       <path id="mc6c6243c42" d="M 0 0 
L -3.5 0 
" style="stroke: #000000; stroke-width: 0.8"/>
      </defs>
      <g>
       <use xlink:href="#mc6c6243c42" x="36.8875" y="215.228949" style="stroke: #000000; stroke-width: 0.8"/>
      </g>
     </g>
     <g id="text_18">
      <!-- 0 -->
      <g transform="translate(23.525 219.028168)scale(0.1 -0.1)">
       <use xlink:href="#DejaVuSans-30"/>
      </g>
     </g>
    </g>
    <g id="ytick_2">
     <g id="line2d_19">
      <g>
       <use xlink:href="#mc6c6243c42" x="36.8875" y="182.207699" style="stroke: #000000; stroke-width: 0.8"/>
      </g>
     </g>
     <g id="text_19">
      <!-- 50 -->
      <g transform="translate(17.1625 186.006918)scale(0.1 -0.1)">
       <use xlink:href="#DejaVuSans-35"/>
       <use xlink:href="#DejaVuSans-30" x="63.623047"/>
      </g>
     </g>
    </g>
    <g id="ytick_3">
     <g id="line2d_20">
      <g>
       <use xlink:href="#mc6c6243c42" x="36.8875" y="149.18645" style="stroke: #000000; stroke-width: 0.8"/>
      </g>
     </g>
     <g id="text_20">
      <!-- 100 -->
      <g transform="translate(10.8 152.985668)scale(0.1 -0.1)">
       <use xlink:href="#DejaVuSans-31"/>
       <use xlink:href="#DejaVuSans-30" x="63.623047"/>
       <use xlink:href="#DejaVuSans-30" x="127.246094"/>
      </g>
     </g>
    </g>
    <g id="ytick_4">
     <g id="line2d_21">
      <g>
       <use xlink:href="#mc6c6243c42" x="36.8875" y="116.1652" style="stroke: #000000; stroke-width: 0.8"/>
      </g>
     </g>
     <g id="text_21">
      <!-- 150 -->
      <g transform="translate(10.8 119.964419)scale(0.1 -0.1)">
       <use xlink:href="#DejaVuSans-31"/>
       <use xlink:href="#DejaVuSans-35" x="63.623047"/>
       <use xlink:href="#DejaVuSans-30" x="127.246094"/>
      </g>
     </g>
    </g>
    <g id="ytick_5">
     <g id="line2d_22">
      <g>
       <use xlink:href="#mc6c6243c42" x="36.8875" y="83.143951" style="stroke: #000000; stroke-width: 0.8"/>
      </g>
     </g>
     <g id="text_22">
      <!-- 200 -->
      <g transform="translate(10.8 86.943169)scale(0.1 -0.1)">
       <use xlink:href="#DejaVuSans-32"/>
       <use xlink:href="#DejaVuSans-30" x="63.623047"/>
       <use xlink:href="#DejaVuSans-30" x="127.246094"/>
      </g>
     </g>
    </g>
    <g id="ytick_6">
     <g id="line2d_23">
      <g>
       <use xlink:href="#mc6c6243c42" x="36.8875" y="50.122701" style="stroke: #000000; stroke-width: 0.8"/>
      </g>
     </g>
     <g id="text_23">
      <!-- 250 -->
      <g transform="translate(10.8 53.92192)scale(0.1 -0.1)">
       <use xlink:href="#DejaVuSans-32"/>
       <use xlink:href="#DejaVuSans-35" x="63.623047"/>
       <use xlink:href="#DejaVuSans-30" x="127.246094"/>
      </g>
     </g>
    </g>
   </g>
   <g id="line2d_24">
    <path d="M 44.090617 41.537176 
L 58.496851 41.537176 
L 58.496851 37.574626 
L 44.090617 37.574626 
L 44.090617 41.537176 
" clip-path="url(#p1983b35ab1)" style="fill: none; stroke: #1f77b4; stroke-linecap: square"/>
   </g>
   <g id="line2d_25">
    <path d="M 51.293734 41.537176 
L 51.293734 42.858026 
" clip-path="url(#p1983b35ab1)" style="fill: none; stroke: #1f77b4; stroke-linecap: square"/>
   </g>
   <g id="line2d_26">
    <path d="M 51.293734 37.574626 
L 51.293734 34.932926 
" clip-path="url(#p1983b35ab1)" style="fill: none; stroke: #1f77b4; stroke-linecap: square"/>
   </g>
   <g id="line2d_27">
    <path d="M 47.692175 42.858026 
L 54.895292 42.858026 
" clip-path="url(#p1983b35ab1)" style="fill: none; stroke: #1f77b4; stroke-linecap: square"/>
   </g>
   <g id="line2d_28">
    <path d="M 47.692175 34.932926 
L 54.895292 34.932926 
" clip-path="url(#p1983b35ab1)" style="fill: none; stroke: #1f77b4; stroke-linecap: square"/>
   </g>
   <g id="line2d_29"/>
   <g id="line2d_30">
    <path d="M 72.903084 215.228949 
L 87.309318 215.228949 
L 87.309318 215.228949 
L 72.903084 215.228949 
L 72.903084 215.228949 
" clip-path="url(#p1983b35ab1)" style="fill: none; stroke: #1f77b4; stroke-linecap: square"/>
   </g>
   <g id="line2d_31">
    <path d="M 80.106201 215.228949 
L 80.106201 215.228949 
" clip-path="url(#p1983b35ab1)" style="fill: none; stroke: #1f77b4; stroke-linecap: square"/>
   </g>
   <g id="line2d_32">
    <path d="M 80.106201 215.228949 
L 80.106201 215.228949 
" clip-path="url(#p1983b35ab1)" style="fill: none; stroke: #1f77b4; stroke-linecap: square"/>
   </g>
   <g id="line2d_33">
    <path d="M 76.504643 215.228949 
L 83.70776 215.228949 
" clip-path="url(#p1983b35ab1)" style="fill: none; stroke: #1f77b4; stroke-linecap: square"/>
   </g>
   <g id="line2d_34">
    <path d="M 76.504643 215.228949 
L 83.70776 215.228949 
" clip-path="url(#p1983b35ab1)" style="fill: none; stroke: #1f77b4; stroke-linecap: square"/>
   </g>
   <g id="line2d_35">
    <defs>
     <path id="md1b3b54a95" d="M 0 3 
C 0.795609 3 1.55874 2.683901 2.12132 2.12132 
C 2.683901 1.55874 3 0.795609 3 0 
C 3 -0.795609 2.683901 -1.55874 2.12132 -2.12132 
C 1.55874 -2.683901 0.795609 -3 0 -3 
C -0.795609 -3 -1.55874 -2.683901 -2.12132 -2.12132 
C -2.683901 -1.55874 -3 -0.795609 -3 0 
C -3 0.795609 -2.683901 1.55874 -2.12132 2.12132 
C -1.55874 2.683901 -0.795609 3 0 3 
z
" style="stroke: #000000"/>
    </defs>
    <g clip-path="url(#p1983b35ab1)">
     <use xlink:href="#md1b3b54a95" x="80.106201" y="214.568524" style="fill-opacity: 0; stroke: #000000"/>
    </g>
   </g>
   <g id="line2d_36">
    <path d="M 101.715552 215.228949 
L 116.121786 215.228949 
L 116.121786 214.568524 
L 101.715552 214.568524 
L 101.715552 215.228949 
" clip-path="url(#p1983b35ab1)" style="fill: none; stroke: #1f77b4; stroke-linecap: square"/>
   </g>
   <g id="line2d_37">
    <path d="M 108.918669 215.228949 
L 108.918669 215.228949 
" clip-path="url(#p1983b35ab1)" style="fill: none; stroke: #1f77b4; stroke-linecap: square"/>
   </g>
   <g id="line2d_38">
    <path d="M 108.918669 214.568524 
L 108.918669 214.568524 
" clip-path="url(#p1983b35ab1)" style="fill: none; stroke: #1f77b4; stroke-linecap: square"/>
   </g>
   <g id="line2d_39">
    <path d="M 105.31711 215.228949 
L 112.520227 215.228949 
" clip-path="url(#p1983b35ab1)" style="fill: none; stroke: #1f77b4; stroke-linecap: square"/>
   </g>
   <g id="line2d_40">
    <path d="M 105.31711 214.568524 
L 112.520227 214.568524 
" clip-path="url(#p1983b35ab1)" style="fill: none; stroke: #1f77b4; stroke-linecap: square"/>
   </g>
   <g id="line2d_41"/>
   <g id="line2d_42">
    <path d="M 130.52802 215.228949 
L 144.934253 215.228949 
L 144.934253 215.228949 
L 130.52802 215.228949 
L 130.52802 215.228949 
" clip-path="url(#p1983b35ab1)" style="fill: none; stroke: #1f77b4; stroke-linecap: square"/>
   </g>
   <g id="line2d_43">
    <path d="M 137.731136 215.228949 
L 137.731136 215.228949 
" clip-path="url(#p1983b35ab1)" style="fill: none; stroke: #1f77b4; stroke-linecap: square"/>
   </g>
   <g id="line2d_44">
    <path d="M 137.731136 215.228949 
L 137.731136 215.228949 
" clip-path="url(#p1983b35ab1)" style="fill: none; stroke: #1f77b4; stroke-linecap: square"/>
   </g>
   <g id="line2d_45">
    <path d="M 134.129578 215.228949 
L 141.332695 215.228949 
" clip-path="url(#p1983b35ab1)" style="fill: none; stroke: #1f77b4; stroke-linecap: square"/>
   </g>
   <g id="line2d_46">
    <path d="M 134.129578 215.228949 
L 141.332695 215.228949 
" clip-path="url(#p1983b35ab1)" style="fill: none; stroke: #1f77b4; stroke-linecap: square"/>
   </g>
   <g id="line2d_47">
    <g clip-path="url(#p1983b35ab1)">
     <use xlink:href="#md1b3b54a95" x="137.731136" y="214.568524" style="fill-opacity: 0; stroke: #000000"/>
    </g>
   </g>
   <g id="line2d_48">
    <path d="M 159.340487 215.228949 
L 173.746721 215.228949 
L 173.746721 215.228949 
L 159.340487 215.228949 
L 159.340487 215.228949 
" clip-path="url(#p1983b35ab1)" style="fill: none; stroke: #1f77b4; stroke-linecap: square"/>
   </g>
   <g id="line2d_49">
    <path d="M 166.543604 215.228949 
L 166.543604 215.228949 
" clip-path="url(#p1983b35ab1)" style="fill: none; stroke: #1f77b4; stroke-linecap: square"/>
   </g>
   <g id="line2d_50">
    <path d="M 166.543604 215.228949 
L 166.543604 215.228949 
" clip-path="url(#p1983b35ab1)" style="fill: none; stroke: #1f77b4; stroke-linecap: square"/>
   </g>
   <g id="line2d_51">
    <path d="M 162.942046 215.228949 
L 170.145162 215.228949 
" clip-path="url(#p1983b35ab1)" style="fill: none; stroke: #1f77b4; stroke-linecap: square"/>
   </g>
   <g id="line2d_52">
    <path d="M 162.942046 215.228949 
L 170.145162 215.228949 
" clip-path="url(#p1983b35ab1)" style="fill: none; stroke: #1f77b4; stroke-linecap: square"/>
   </g>
   <g id="line2d_53">
    <g clip-path="url(#p1983b35ab1)">
     <use xlink:href="#md1b3b54a95" x="166.543604" y="213.908099" style="fill-opacity: 0; stroke: #000000"/>
    </g>
   </g>
   <g id="line2d_54">
    <path d="M 188.152955 215.228949 
L 202.559188 215.228949 
L 202.559188 214.568524 
L 188.152955 214.568524 
L 188.152955 215.228949 
" clip-path="url(#p1983b35ab1)" style="fill: none; stroke: #1f77b4; stroke-linecap: square"/>
   </g>
   <g id="line2d_55">
    <path d="M 195.356072 215.228949 
L 195.356072 215.228949 
" clip-path="url(#p1983b35ab1)" style="fill: none; stroke: #1f77b4; stroke-linecap: square"/>
   </g>
   <g id="line2d_56">
    <path d="M 195.356072 214.568524 
L 195.356072 214.568524 
" clip-path="url(#p1983b35ab1)" style="fill: none; stroke: #1f77b4; stroke-linecap: square"/>
   </g>
   <g id="line2d_57">
    <path d="M 191.754513 215.228949 
L 198.95763 215.228949 
" clip-path="url(#p1983b35ab1)" style="fill: none; stroke: #1f77b4; stroke-linecap: square"/>
   </g>
   <g id="line2d_58">
    <path d="M 191.754513 214.568524 
L 198.95763 214.568524 
" clip-path="url(#p1983b35ab1)" style="fill: none; stroke: #1f77b4; stroke-linecap: square"/>
   </g>
   <g id="line2d_59"/>
   <g id="line2d_60">
    <path d="M 216.965422 215.228949 
L 231.371656 215.228949 
L 231.371656 214.568524 
L 216.965422 214.568524 
L 216.965422 215.228949 
" clip-path="url(#p1983b35ab1)" style="fill: none; stroke: #1f77b4; stroke-linecap: square"/>
   </g>
   <g id="line2d_61">
    <path d="M 224.168539 215.228949 
L 224.168539 215.228949 
" clip-path="url(#p1983b35ab1)" style="fill: none; stroke: #1f77b4; stroke-linecap: square"/>
   </g>
   <g id="line2d_62">
    <path d="M 224.168539 214.568524 
L 224.168539 214.568524 
" clip-path="url(#p1983b35ab1)" style="fill: none; stroke: #1f77b4; stroke-linecap: square"/>
   </g>
   <g id="line2d_63">
    <path d="M 220.566981 215.228949 
L 227.770098 215.228949 
" clip-path="url(#p1983b35ab1)" style="fill: none; stroke: #1f77b4; stroke-linecap: square"/>
   </g>
   <g id="line2d_64">
    <path d="M 220.566981 214.568524 
L 227.770098 214.568524 
" clip-path="url(#p1983b35ab1)" style="fill: none; stroke: #1f77b4; stroke-linecap: square"/>
   </g>
   <g id="line2d_65"/>
   <g id="line2d_66">
    <path d="M 245.77789 207.964274 
L 260.184124 207.964274 
L 260.184124 205.322574 
L 245.77789 205.322574 
L 245.77789 207.964274 
" clip-path="url(#p1983b35ab1)" style="fill: none; stroke: #1f77b4; stroke-linecap: square"/>
   </g>
   <g id="line2d_67">
    <path d="M 252.981007 207.964274 
L 252.981007 209.285124 
" clip-path="url(#p1983b35ab1)" style="fill: none; stroke: #1f77b4; stroke-linecap: square"/>
   </g>
   <g id="line2d_68">
    <path d="M 252.981007 205.322574 
L 252.981007 201.360024 
" clip-path="url(#p1983b35ab1)" style="fill: none; stroke: #1f77b4; stroke-linecap: square"/>
   </g>
   <g id="line2d_69">
    <path d="M 249.379448 209.285124 
L 256.582565 209.285124 
" clip-path="url(#p1983b35ab1)" style="fill: none; stroke: #1f77b4; stroke-linecap: square"/>
   </g>
   <g id="line2d_70">
    <path d="M 249.379448 201.360024 
L 256.582565 201.360024 
" clip-path="url(#p1983b35ab1)" style="fill: none; stroke: #1f77b4; stroke-linecap: square"/>
   </g>
   <g id="line2d_71"/>
   <g id="line2d_72">
    <path d="M 274.590357 215.228949 
L 288.996591 215.228949 
L 288.996591 215.228949 
L 274.590357 215.228949 
L 274.590357 215.228949 
" clip-path="url(#p1983b35ab1)" style="fill: none; stroke: #1f77b4; stroke-linecap: square"/>
   </g>
   <g id="line2d_73">
    <path d="M 281.793474 215.228949 
L 281.793474 215.228949 
" clip-path="url(#p1983b35ab1)" style="fill: none; stroke: #1f77b4; stroke-linecap: square"/>
   </g>
   <g id="line2d_74">
    <path d="M 281.793474 215.228949 
L 281.793474 215.228949 
" clip-path="url(#p1983b35ab1)" style="fill: none; stroke: #1f77b4; stroke-linecap: square"/>
   </g>
   <g id="line2d_75">
    <path d="M 278.191916 215.228949 
L 285.395033 215.228949 
" clip-path="url(#p1983b35ab1)" style="fill: none; stroke: #1f77b4; stroke-linecap: square"/>
   </g>
   <g id="line2d_76">
    <path d="M 278.191916 215.228949 
L 285.395033 215.228949 
" clip-path="url(#p1983b35ab1)" style="fill: none; stroke: #1f77b4; stroke-linecap: square"/>
   </g>
   <g id="line2d_77">
    <g clip-path="url(#p1983b35ab1)">
     <use xlink:href="#md1b3b54a95" x="281.793474" y="214.568524" style="fill-opacity: 0; stroke: #000000"/>
    </g>
   </g>
   <g id="line2d_78">
    <path d="M 303.402825 215.228949 
L 317.809059 215.228949 
L 317.809059 215.228949 
L 303.402825 215.228949 
L 303.402825 215.228949 
" clip-path="url(#p1983b35ab1)" style="fill: none; stroke: #1f77b4; stroke-linecap: square"/>
   </g>
   <g id="line2d_79">
    <path d="M 310.605942 215.228949 
L 310.605942 215.228949 
" clip-path="url(#p1983b35ab1)" style="fill: none; stroke: #1f77b4; stroke-linecap: square"/>
   </g>
   <g id="line2d_80">
    <path d="M 310.605942 215.228949 
L 310.605942 215.228949 
" clip-path="url(#p1983b35ab1)" style="fill: none; stroke: #1f77b4; stroke-linecap: square"/>
   </g>
   <g id="line2d_81">
    <path d="M 307.004383 215.228949 
L 314.2075 215.228949 
" clip-path="url(#p1983b35ab1)" style="fill: none; stroke: #1f77b4; stroke-linecap: square"/>
   </g>
   <g id="line2d_82">
    <path d="M 307.004383 215.228949 
L 314.2075 215.228949 
" clip-path="url(#p1983b35ab1)" style="fill: none; stroke: #1f77b4; stroke-linecap: square"/>
   </g>
   <g id="line2d_83">
    <g clip-path="url(#p1983b35ab1)">
     <use xlink:href="#md1b3b54a95" x="310.605942" y="214.568524" style="fill-opacity: 0; stroke: #000000"/>
    </g>
   </g>
   <g id="line2d_84">
    <path d="M 332.215292 212.587249 
L 346.621526 212.587249 
L 346.621526 211.266399 
L 332.215292 211.266399 
L 332.215292 212.587249 
" clip-path="url(#p1983b35ab1)" style="fill: none; stroke: #1f77b4; stroke-linecap: square"/>
   </g>
   <g id="line2d_85">
    <path d="M 339.418409 212.587249 
L 339.418409 213.908099 
" clip-path="url(#p1983b35ab1)" style="fill: none; stroke: #1f77b4; stroke-linecap: square"/>
   </g>
   <g id="line2d_86">
    <path d="M 339.418409 211.266399 
L 339.418409 210.605974 
" clip-path="url(#p1983b35ab1)" style="fill: none; stroke: #1f77b4; stroke-linecap: square"/>
   </g>
   <g id="line2d_87">
    <path d="M 335.816851 213.908099 
L 343.019968 213.908099 
" clip-path="url(#p1983b35ab1)" style="fill: none; stroke: #1f77b4; stroke-linecap: square"/>
   </g>
   <g id="line2d_88">
    <path d="M 335.816851 210.605974 
L 343.019968 210.605974 
" clip-path="url(#p1983b35ab1)" style="fill: none; stroke: #1f77b4; stroke-linecap: square"/>
   </g>
   <g id="line2d_89"/>
   <g id="line2d_90">
    <path d="M 361.02776 213.247674 
L 375.433994 213.247674 
L 375.433994 211.926824 
L 361.02776 211.926824 
L 361.02776 213.247674 
" clip-path="url(#p1983b35ab1)" style="fill: none; stroke: #1f77b4; stroke-linecap: square"/>
   </g>
   <g id="line2d_91">
    <path d="M 368.230877 213.247674 
L 368.230877 215.228949 
" clip-path="url(#p1983b35ab1)" style="fill: none; stroke: #1f77b4; stroke-linecap: square"/>
   </g>
   <g id="line2d_92">
    <path d="M 368.230877 211.926824 
L 368.230877 210.605974 
" clip-path="url(#p1983b35ab1)" style="fill: none; stroke: #1f77b4; stroke-linecap: square"/>
   </g>
   <g id="line2d_93">
    <path d="M 364.629319 215.228949 
L 371.832435 215.228949 
" clip-path="url(#p1983b35ab1)" style="fill: none; stroke: #1f77b4; stroke-linecap: square"/>
   </g>
   <g id="line2d_94">
    <path d="M 364.629319 210.605974 
L 371.832435 210.605974 
" clip-path="url(#p1983b35ab1)" style="fill: none; stroke: #1f77b4; stroke-linecap: square"/>
   </g>
   <g id="line2d_95"/>
   <g id="line2d_96">
    <path d="M 389.840228 213.908099 
L 404.246461 213.908099 
L 404.246461 213.247674 
L 389.840228 213.247674 
L 389.840228 213.908099 
" clip-path="url(#p1983b35ab1)" style="fill: none; stroke: #1f77b4; stroke-linecap: square"/>
   </g>
   <g id="line2d_97">
    <path d="M 397.043345 213.908099 
L 397.043345 213.908099 
" clip-path="url(#p1983b35ab1)" style="fill: none; stroke: #1f77b4; stroke-linecap: square"/>
   </g>
   <g id="line2d_98">
    <path d="M 397.043345 213.247674 
L 397.043345 213.247674 
" clip-path="url(#p1983b35ab1)" style="fill: none; stroke: #1f77b4; stroke-linecap: square"/>
   </g>
   <g id="line2d_99">
    <path d="M 393.441786 213.908099 
L 400.644903 213.908099 
" clip-path="url(#p1983b35ab1)" style="fill: none; stroke: #1f77b4; stroke-linecap: square"/>
   </g>
   <g id="line2d_100">
    <path d="M 393.441786 213.247674 
L 400.644903 213.247674 
" clip-path="url(#p1983b35ab1)" style="fill: none; stroke: #1f77b4; stroke-linecap: square"/>
   </g>
   <g id="line2d_101">
    <g clip-path="url(#p1983b35ab1)">
     <use xlink:href="#md1b3b54a95" x="397.043345" y="215.228949" style="fill-opacity: 0; stroke: #000000"/>
     <use xlink:href="#md1b3b54a95" x="397.043345" y="211.926824" style="fill-opacity: 0; stroke: #000000"/>
    </g>
   </g>
   <g id="line2d_102">
    <path d="M 418.652695 214.568524 
L 433.058929 214.568524 
L 433.058929 213.908099 
L 418.652695 213.908099 
L 418.652695 214.568524 
" clip-path="url(#p1983b35ab1)" style="fill: none; stroke: #1f77b4; stroke-linecap: square"/>
   </g>
   <g id="line2d_103">
    <path d="M 425.855812 214.568524 
L 425.855812 214.568524 
" clip-path="url(#p1983b35ab1)" style="fill: none; stroke: #1f77b4; stroke-linecap: square"/>
   </g>
   <g id="line2d_104">
    <path d="M 425.855812 213.908099 
L 425.855812 213.908099 
" clip-path="url(#p1983b35ab1)" style="fill: none; stroke: #1f77b4; stroke-linecap: square"/>
   </g>
   <g id="line2d_105">
    <path d="M 422.254254 214.568524 
L 429.457371 214.568524 
" clip-path="url(#p1983b35ab1)" style="fill: none; stroke: #1f77b4; stroke-linecap: square"/>
   </g>
   <g id="line2d_106">
    <path d="M 422.254254 213.908099 
L 429.457371 213.908099 
" clip-path="url(#p1983b35ab1)" style="fill: none; stroke: #1f77b4; stroke-linecap: square"/>
   </g>
   <g id="line2d_107"/>
   <g id="line2d_108">
    <path d="M 447.465163 215.228949 
L 461.871397 215.228949 
L 461.871397 214.568524 
L 447.465163 214.568524 
L 447.465163 215.228949 
" clip-path="url(#p1983b35ab1)" style="fill: none; stroke: #1f77b4; stroke-linecap: square"/>
   </g>
   <g id="line2d_109">
    <path d="M 454.66828 215.228949 
L 454.66828 215.228949 
" clip-path="url(#p1983b35ab1)" style="fill: none; stroke: #1f77b4; stroke-linecap: square"/>
   </g>
   <g id="line2d_110">
    <path d="M 454.66828 214.568524 
L 454.66828 213.908099 
" clip-path="url(#p1983b35ab1)" style="fill: none; stroke: #1f77b4; stroke-linecap: square"/>
   </g>
   <g id="line2d_111">
    <path d="M 451.066721 215.228949 
L 458.269838 215.228949 
" clip-path="url(#p1983b35ab1)" style="fill: none; stroke: #1f77b4; stroke-linecap: square"/>
   </g>
   <g id="line2d_112">
    <path d="M 451.066721 213.908099 
L 458.269838 213.908099 
" clip-path="url(#p1983b35ab1)" style="fill: none; stroke: #1f77b4; stroke-linecap: square"/>
   </g>
   <g id="line2d_113"/>
   <g id="line2d_114">
    <path d="M 476.27763 215.228949 
L 490.683864 215.228949 
L 490.683864 214.568524 
L 476.27763 214.568524 
L 476.27763 215.228949 
" clip-path="url(#p1983b35ab1)" style="fill: none; stroke: #1f77b4; stroke-linecap: square"/>
   </g>
   <g id="line2d_115">
    <path d="M 483.480747 215.228949 
L 483.480747 215.228949 
" clip-path="url(#p1983b35ab1)" style="fill: none; stroke: #1f77b4; stroke-linecap: square"/>
   </g>
   <g id="line2d_116">
    <path d="M 483.480747 214.568524 
L 483.480747 214.568524 
" clip-path="url(#p1983b35ab1)" style="fill: none; stroke: #1f77b4; stroke-linecap: square"/>
   </g>
   <g id="line2d_117">
    <path d="M 479.879189 215.228949 
L 487.082306 215.228949 
" clip-path="url(#p1983b35ab1)" style="fill: none; stroke: #1f77b4; stroke-linecap: square"/>
   </g>
   <g id="line2d_118">
    <path d="M 479.879189 214.568524 
L 487.082306 214.568524 
" clip-path="url(#p1983b35ab1)" style="fill: none; stroke: #1f77b4; stroke-linecap: square"/>
   </g>
   <g id="line2d_119"/>
   <g id="line2d_120">
    <path d="M 505.090098 215.228949 
L 519.496332 215.228949 
L 519.496332 215.228949 
L 505.090098 215.228949 
L 505.090098 215.228949 
" clip-path="url(#p1983b35ab1)" style="fill: none; stroke: #1f77b4; stroke-linecap: square"/>
   </g>
   <g id="line2d_121">
    <path d="M 512.293215 215.228949 
L 512.293215 215.228949 
" clip-path="url(#p1983b35ab1)" style="fill: none; stroke: #1f77b4; stroke-linecap: square"/>
   </g>
   <g id="line2d_122">
    <path d="M 512.293215 215.228949 
L 512.293215 215.228949 
" clip-path="url(#p1983b35ab1)" style="fill: none; stroke: #1f77b4; stroke-linecap: square"/>
   </g>
   <g id="line2d_123">
    <path d="M 508.691656 215.228949 
L 515.894773 215.228949 
" clip-path="url(#p1983b35ab1)" style="fill: none; stroke: #1f77b4; stroke-linecap: square"/>
   </g>
   <g id="line2d_124">
    <path d="M 508.691656 215.228949 
L 515.894773 215.228949 
" clip-path="url(#p1983b35ab1)" style="fill: none; stroke: #1f77b4; stroke-linecap: square"/>
   </g>
   <g id="line2d_125">
    <g clip-path="url(#p1983b35ab1)">
     <use xlink:href="#md1b3b54a95" x="512.293215" y="213.908099" style="fill-opacity: 0; stroke: #000000"/>
    </g>
   </g>
   <g id="line2d_126">
    <path d="M 44.090617 38.895476 
L 58.496851 38.895476 
" clip-path="url(#p1983b35ab1)" style="fill: none; stroke: #2ca02c; stroke-linecap: square"/>
   </g>
   <g id="line2d_127">
    <path d="M 72.903084 215.228949 
L 87.309318 215.228949 
" clip-path="url(#p1983b35ab1)" style="fill: none; stroke: #2ca02c; stroke-linecap: square"/>
   </g>
   <g id="line2d_128">
    <path d="M 101.715552 215.228949 
L 116.121786 215.228949 
" clip-path="url(#p1983b35ab1)" style="fill: none; stroke: #2ca02c; stroke-linecap: square"/>
   </g>
   <g id="line2d_129">
    <path d="M 130.52802 215.228949 
L 144.934253 215.228949 
" clip-path="url(#p1983b35ab1)" style="fill: none; stroke: #2ca02c; stroke-linecap: square"/>
   </g>
   <g id="line2d_130">
    <path d="M 159.340487 215.228949 
L 173.746721 215.228949 
" clip-path="url(#p1983b35ab1)" style="fill: none; stroke: #2ca02c; stroke-linecap: square"/>
   </g>
   <g id="line2d_131">
    <path d="M 188.152955 215.228949 
L 202.559188 215.228949 
" clip-path="url(#p1983b35ab1)" style="fill: none; stroke: #2ca02c; stroke-linecap: square"/>
   </g>
   <g id="line2d_132">
    <path d="M 216.965422 215.228949 
L 231.371656 215.228949 
" clip-path="url(#p1983b35ab1)" style="fill: none; stroke: #2ca02c; stroke-linecap: square"/>
   </g>
   <g id="line2d_133">
    <path d="M 245.77789 207.303849 
L 260.184124 207.303849 
" clip-path="url(#p1983b35ab1)" style="fill: none; stroke: #2ca02c; stroke-linecap: square"/>
   </g>
   <g id="line2d_134">
    <path d="M 274.590357 215.228949 
L 288.996591 215.228949 
" clip-path="url(#p1983b35ab1)" style="fill: none; stroke: #2ca02c; stroke-linecap: square"/>
   </g>
   <g id="line2d_135">
    <path d="M 303.402825 215.228949 
L 317.809059 215.228949 
" clip-path="url(#p1983b35ab1)" style="fill: none; stroke: #2ca02c; stroke-linecap: square"/>
   </g>
   <g id="line2d_136">
    <path d="M 332.215292 211.926824 
L 346.621526 211.926824 
" clip-path="url(#p1983b35ab1)" style="fill: none; stroke: #2ca02c; stroke-linecap: square"/>
   </g>
   <g id="line2d_137">
    <path d="M 361.02776 211.926824 
L 375.433994 211.926824 
" clip-path="url(#p1983b35ab1)" style="fill: none; stroke: #2ca02c; stroke-linecap: square"/>
   </g>
   <g id="line2d_138">
    <path d="M 389.840228 213.247674 
L 404.246461 213.247674 
" clip-path="url(#p1983b35ab1)" style="fill: none; stroke: #2ca02c; stroke-linecap: square"/>
   </g>
   <g id="line2d_139">
    <path d="M 418.652695 213.908099 
L 433.058929 213.908099 
" clip-path="url(#p1983b35ab1)" style="fill: none; stroke: #2ca02c; stroke-linecap: square"/>
   </g>
   <g id="line2d_140">
    <path d="M 447.465163 215.228949 
L 461.871397 215.228949 
" clip-path="url(#p1983b35ab1)" style="fill: none; stroke: #2ca02c; stroke-linecap: square"/>
   </g>
   <g id="line2d_141">
    <path d="M 476.27763 215.228949 
L 490.683864 215.228949 
" clip-path="url(#p1983b35ab1)" style="fill: none; stroke: #2ca02c; stroke-linecap: square"/>
   </g>
   <g id="line2d_142">
    <path d="M 505.090098 215.228949 
L 519.496332 215.228949 
" clip-path="url(#p1983b35ab1)" style="fill: none; stroke: #2ca02c; stroke-linecap: square"/>
   </g>
   <g id="patch_3">
    <path d="M 36.8875 224.24375 
L 36.8875 25.918125 
" style="fill: none; stroke: #000000; stroke-width: 0.8; stroke-linejoin: miter; stroke-linecap: square"/>
   </g>
   <g id="patch_4">
    <path d="M 526.699449 224.24375 
L 526.699449 25.918125 
" style="fill: none; stroke: #000000; stroke-width: 0.8; stroke-linejoin: miter; stroke-linecap: square"/>
   </g>
   <g id="patch_5">
    <path d="M 36.8875 224.24375 
L 526.699449 224.24375 
" style="fill: none; stroke: #000000; stroke-width: 0.8; stroke-linejoin: miter; stroke-linecap: square"/>
   </g>
   <g id="patch_6">
    <path d="M 36.8875 25.918125 
L 526.699449 25.918125 
" style="fill: none; stroke: #000000; stroke-width: 0.8; stroke-linejoin: miter; stroke-linecap: square"/>
   </g>
   <g id="text_24">
    <!-- boxplot -->
    <g transform="translate(259.450037 19.918125)scale(0.12 -0.12)">
     <defs>
      <path id="DejaVuSans-62" d="M 3116 1747 
Q 3116 2381 2855 2742 
Q 2594 3103 2138 3103 
Q 1681 3103 1420 2742 
Q 1159 2381 1159 1747 
Q 1159 1113 1420 752 
Q 1681 391 2138 391 
Q 2594 391 2855 752 
Q 3116 1113 3116 1747 
z
M 1159 2969 
Q 1341 3281 1617 3432 
Q 1894 3584 2278 3584 
Q 2916 3584 3314 3078 
Q 3713 2572 3713 1747 
Q 3713 922 3314 415 
Q 2916 -91 2278 -91 
Q 1894 -91 1617 61 
Q 1341 213 1159 525 
L 1159 0 
L 581 0 
L 581 4863 
L 1159 4863 
L 1159 2969 
z
" transform="scale(0.015625)"/>
      <path id="DejaVuSans-6f" d="M 1959 3097 
Q 1497 3097 1228 2736 
Q 959 2375 959 1747 
Q 959 1119 1226 758 
Q 1494 397 1959 397 
Q 2419 397 2687 759 
Q 2956 1122 2956 1747 
Q 2956 2369 2687 2733 
Q 2419 3097 1959 3097 
z
M 1959 3584 
Q 2709 3584 3137 3096 
Q 3566 2609 3566 1747 
Q 3566 888 3137 398 
Q 2709 -91 1959 -91 
Q 1206 -91 779 398 
Q 353 888 353 1747 
Q 353 2609 779 3096 
Q 1206 3584 1959 3584 
z
" transform="scale(0.015625)"/>
      <path id="DejaVuSans-78" d="M 3513 3500 
L 2247 1797 
L 3578 0 
L 2900 0 
L 1881 1375 
L 863 0 
L 184 0 
L 1544 1831 
L 300 3500 
L 978 3500 
L 1906 2253 
L 2834 3500 
L 3513 3500 
z
" transform="scale(0.015625)"/>
      <path id="DejaVuSans-70" d="M 1159 525 
L 1159 -1331 
L 581 -1331 
L 581 3500 
L 1159 3500 
L 1159 2969 
Q 1341 3281 1617 3432 
Q 1894 3584 2278 3584 
Q 2916 3584 3314 3078 
Q 3713 2572 3713 1747 
Q 3713 922 3314 415 
Q 2916 -91 2278 -91 
Q 1894 -91 1617 61 
Q 1341 213 1159 525 
z
M 3116 1747 
Q 3116 2381 2855 2742 
Q 2594 3103 2138 3103 
Q 1681 3103 1420 2742 
Q 1159 2381 1159 1747 
Q 1159 1113 1420 752 
Q 1681 391 2138 391 
Q 2594 391 2855 752 
Q 3116 1113 3116 1747 
z
" transform="scale(0.015625)"/>
      <path id="DejaVuSans-6c" d="M 603 4863 
L 1178 4863 
L 1178 0 
L 603 0 
L 603 4863 
z
" transform="scale(0.015625)"/>
     </defs>
     <use xlink:href="#DejaVuSans-62"/>
     <use xlink:href="#DejaVuSans-6f" x="63.476562"/>
     <use xlink:href="#DejaVuSans-78" x="121.533203"/>
     <use xlink:href="#DejaVuSans-70" x="180.712891"/>
     <use xlink:href="#DejaVuSans-6c" x="244.189453"/>
     <use xlink:href="#DejaVuSans-6f" x="271.972656"/>
     <use xlink:href="#DejaVuSans-74" x="333.154297"/>
    </g>
   </g>
  </g>
 </g>
 <defs>
  <clipPath id="p1983b35ab1">
   <rect x="36.8875" y="25.918125" width="489.811949" height="198.325625"/>
  </clipPath>
 </defs>
</svg>
