<?xml version="1.0" encoding="utf-8" standalone="no"?>
<!DOCTYPE svg PUBLIC "-//W3C//DTD SVG 1.1//EN"
  "http://www.w3.org/Graphics/SVG/1.1/DTD/svg11.dtd">
<svg xmlns:xlink="http://www.w3.org/1999/xlink" width="540pt" height="252pt" viewBox="0 0 540 252" xmlns="http://www.w3.org/2000/svg" version="1.1">
 <metadata>
  <rdf:RDF xmlns:dc="http://purl.org/dc/elements/1.1/" xmlns:cc="http://creativecommons.org/ns#" xmlns:rdf="http://www.w3.org/1999/02/22-rdf-syntax-ns#">
   <cc:Work>
    <dc:type rdf:resource="http://purl.org/dc/dcmitype/StillImage"/>
    <dc:date>2024-01-25T00:03:44.669431</dc:date>
    <dc:format>image/svg+xml</dc:format>
    <dc:creator>
     <cc:Agent>
      <dc:title>Matplotlib v3.8.2, https://matplotlib.org/</dc:title>
     </cc:Agent>
    </dc:creator>
   </cc:Work>
  </rdf:RDF>
 </metadata>
 <defs>
  <style type="text/css">*{stroke-linejoin: round; stroke-linecap: butt}</style>
 </defs>
 <g id="figure_1">
  <g id="patch_1">
   <path d="M 0 252 
L 540 252 
L 540 0 
L 0 0 
z
" style="fill: #ffffff"/>
  </g>
  <g id="axes_1">
   <g id="patch_2">
    <path d="M 30.525 224.24375 
L 529.2 224.24375 
L 529.2 25.918125 
L 30.525 25.918125 
z
" style="fill: #ffffff"/>
   </g>
   <g id="matplotlib.axis_1">
    <g id="xtick_1">
     <g id="line2d_1">
      <defs>
       <path id="md999261989" d="M 0 0 
L 0 3.5 
" style="stroke: #000000; stroke-width: 0.8"/>
      </defs>
      <g>
       <use xlink:href="#md999261989" x="53.192045" y="224.24375" style="stroke: #000000; stroke-width: 0.8"/>
      </g>
     </g>
     <g id="text_1">
      <!-- dist_1 -->
      <g transform="translate(38.38267 238.842187) scale(0.1 -0.1)">
       <defs>
        <path id="DejaVuSans-64" d="M 2906 2969 
L 2906 4863 
L 3481 4863 
L 3481 0 
L 2906 0 
L 2906 525 
Q 2725 213 2448 61 
Q 2172 -91 1784 -91 
Q 1150 -91 751 415 
Q 353 922 353 1747 
Q 353 2572 751 3078 
Q 1150 3584 1784 3584 
Q 2172 3584 2448 3432 
Q 2725 3281 2906 2969 
z
M 947 1747 
Q 947 1113 1208 752 
Q 1469 391 1925 391 
Q 2381 391 2643 752 
Q 2906 1113 2906 1747 
Q 2906 2381 2643 2742 
Q 2381 3103 1925 3103 
Q 1469 3103 1208 2742 
Q 947 2381 947 1747 
z
" transform="scale(0.015625)"/>
        <path id="DejaVuSans-69" d="M 603 3500 
L 1178 3500 
L 1178 0 
L 603 0 
L 603 3500 
z
M 603 4863 
L 1178 4863 
L 1178 4134 
L 603 4134 
L 603 4863 
z
" transform="scale(0.015625)"/>
        <path id="DejaVuSans-73" d="M 2834 3397 
L 2834 2853 
Q 2591 2978 2328 3040 
Q 2066 3103 1784 3103 
Q 1356 3103 1142 2972 
Q 928 2841 928 2578 
Q 928 2378 1081 2264 
Q 1234 2150 1697 2047 
L 1894 2003 
Q 2506 1872 2764 1633 
Q 3022 1394 3022 966 
Q 3022 478 2636 193 
Q 2250 -91 1575 -91 
Q 1294 -91 989 -36 
Q 684 19 347 128 
L 347 722 
Q 666 556 975 473 
Q 1284 391 1588 391 
Q 1994 391 2212 530 
Q 2431 669 2431 922 
Q 2431 1156 2273 1281 
Q 2116 1406 1581 1522 
L 1381 1569 
Q 847 1681 609 1914 
Q 372 2147 372 2553 
Q 372 3047 722 3315 
Q 1072 3584 1716 3584 
Q 2034 3584 2315 3537 
Q 2597 3491 2834 3397 
z
" transform="scale(0.015625)"/>
        <path id="DejaVuSans-74" d="M 1172 4494 
L 1172 3500 
L 2356 3500 
L 2356 3053 
L 1172 3053 
L 1172 1153 
Q 1172 725 1289 603 
Q 1406 481 1766 481 
L 2356 481 
L 2356 0 
L 1766 0 
Q 1100 0 847 248 
Q 594 497 594 1153 
L 594 3053 
L 172 3053 
L 172 3500 
L 594 3500 
L 594 4494 
L 1172 4494 
z
" transform="scale(0.015625)"/>
        <path id="DejaVuSans-5f" d="M 3263 -1063 
L 3263 -1509 
L -63 -1509 
L -63 -1063 
L 3263 -1063 
z
" transform="scale(0.015625)"/>
        <path id="DejaVuSans-31" d="M 794 531 
L 1825 531 
L 1825 4091 
L 703 3866 
L 703 4441 
L 1819 4666 
L 2450 4666 
L 2450 531 
L 3481 531 
L 3481 0 
L 794 0 
L 794 531 
z
" transform="scale(0.015625)"/>
       </defs>
       <use xlink:href="#DejaVuSans-64"/>
       <use xlink:href="#DejaVuSans-69" x="63.476562"/>
       <use xlink:href="#DejaVuSans-73" x="91.259766"/>
       <use xlink:href="#DejaVuSans-74" x="143.359375"/>
       <use xlink:href="#DejaVuSans-5f" x="182.568359"/>
       <use xlink:href="#DejaVuSans-31" x="232.568359"/>
      </g>
     </g>
    </g>
    <g id="xtick_2">
     <g id="line2d_2">
      <g>
       <use xlink:href="#md999261989" x="98.526136" y="224.24375" style="stroke: #000000; stroke-width: 0.8"/>
      </g>
     </g>
     <g id="text_2">
      <!-- dist_10 -->
      <g transform="translate(80.535511 238.842187) scale(0.1 -0.1)">
       <defs>
        <path id="DejaVuSans-30" d="M 2034 4250 
Q 1547 4250 1301 3770 
Q 1056 3291 1056 2328 
Q 1056 1369 1301 889 
Q 1547 409 2034 409 
Q 2525 409 2770 889 
Q 3016 1369 3016 2328 
Q 3016 3291 2770 3770 
Q 2525 4250 2034 4250 
z
M 2034 4750 
Q 2819 4750 3233 4129 
Q 3647 3509 3647 2328 
Q 3647 1150 3233 529 
Q 2819 -91 2034 -91 
Q 1250 -91 836 529 
Q 422 1150 422 2328 
Q 422 3509 836 4129 
Q 1250 4750 2034 4750 
z
" transform="scale(0.015625)"/>
       </defs>
       <use xlink:href="#DejaVuSans-64"/>
       <use xlink:href="#DejaVuSans-69" x="63.476562"/>
       <use xlink:href="#DejaVuSans-73" x="91.259766"/>
       <use xlink:href="#DejaVuSans-74" x="143.359375"/>
       <use xlink:href="#DejaVuSans-5f" x="182.568359"/>
       <use xlink:href="#DejaVuSans-31" x="232.568359"/>
       <use xlink:href="#DejaVuSans-30" x="296.191406"/>
      </g>
     </g>
    </g>
    <g id="xtick_3">
     <g id="line2d_3">
      <g>
       <use xlink:href="#md999261989" x="143.860227" y="224.24375" style="stroke: #000000; stroke-width: 0.8"/>
      </g>
     </g>
     <g id="text_3">
      <!-- dist_11 -->
      <g transform="translate(125.869602 238.842187) scale(0.1 -0.1)">
       <use xlink:href="#DejaVuSans-64"/>
       <use xlink:href="#DejaVuSans-69" x="63.476562"/>
       <use xlink:href="#DejaVuSans-73" x="91.259766"/>
       <use xlink:href="#DejaVuSans-74" x="143.359375"/>
       <use xlink:href="#DejaVuSans-5f" x="182.568359"/>
       <use xlink:href="#DejaVuSans-31" x="232.568359"/>
       <use xlink:href="#DejaVuSans-31" x="296.191406"/>
      </g>
     </g>
    </g>
    <g id="xtick_4">
     <g id="line2d_4">
      <g>
       <use xlink:href="#md999261989" x="189.194318" y="224.24375" style="stroke: #000000; stroke-width: 0.8"/>
      </g>
     </g>
     <g id="text_4">
      <!-- dist_2 -->
      <g transform="translate(174.384943 238.842187) scale(0.1 -0.1)">
       <defs>
        <path id="DejaVuSans-32" d="M 1228 531 
L 3431 531 
L 3431 0 
L 469 0 
L 469 531 
Q 828 903 1448 1529 
Q 2069 2156 2228 2338 
Q 2531 2678 2651 2914 
Q 2772 3150 2772 3378 
Q 2772 3750 2511 3984 
Q 2250 4219 1831 4219 
Q 1534 4219 1204 4116 
Q 875 4013 500 3803 
L 500 4441 
Q 881 4594 1212 4672 
Q 1544 4750 1819 4750 
Q 2544 4750 2975 4387 
Q 3406 4025 3406 3419 
Q 3406 3131 3298 2873 
Q 3191 2616 2906 2266 
Q 2828 2175 2409 1742 
Q 1991 1309 1228 531 
z
" transform="scale(0.015625)"/>
       </defs>
       <use xlink:href="#DejaVuSans-64"/>
       <use xlink:href="#DejaVuSans-69" x="63.476562"/>
       <use xlink:href="#DejaVuSans-73" x="91.259766"/>
       <use xlink:href="#DejaVuSans-74" x="143.359375"/>
       <use xlink:href="#DejaVuSans-5f" x="182.568359"/>
       <use xlink:href="#DejaVuSans-32" x="232.568359"/>
      </g>
     </g>
    </g>
    <g id="xtick_5">
     <g id="line2d_5">
      <g>
       <use xlink:href="#md999261989" x="234.528409" y="224.24375" style="stroke: #000000; stroke-width: 0.8"/>
      </g>
     </g>
     <g id="text_5">
      <!-- dist_3 -->
      <g transform="translate(219.719034 238.842187) scale(0.1 -0.1)">
       <defs>
        <path id="DejaVuSans-33" d="M 2597 2516 
Q 3050 2419 3304 2112 
Q 3559 1806 3559 1356 
Q 3559 666 3084 287 
Q 2609 -91 1734 -91 
Q 1441 -91 1130 -33 
Q 819 25 488 141 
L 488 750 
Q 750 597 1062 519 
Q 1375 441 1716 441 
Q 2309 441 2620 675 
Q 2931 909 2931 1356 
Q 2931 1769 2642 2001 
Q 2353 2234 1838 2234 
L 1294 2234 
L 1294 2753 
L 1863 2753 
Q 2328 2753 2575 2939 
Q 2822 3125 2822 3475 
Q 2822 3834 2567 4026 
Q 2313 4219 1838 4219 
Q 1578 4219 1281 4162 
Q 984 4106 628 3988 
L 628 4550 
Q 988 4650 1302 4700 
Q 1616 4750 1894 4750 
Q 2613 4750 3031 4423 
Q 3450 4097 3450 3541 
Q 3450 3153 3228 2886 
Q 3006 2619 2597 2516 
z
" transform="scale(0.015625)"/>
       </defs>
       <use xlink:href="#DejaVuSans-64"/>
       <use xlink:href="#DejaVuSans-69" x="63.476562"/>
       <use xlink:href="#DejaVuSans-73" x="91.259766"/>
       <use xlink:href="#DejaVuSans-74" x="143.359375"/>
       <use xlink:href="#DejaVuSans-5f" x="182.568359"/>
       <use xlink:href="#DejaVuSans-33" x="232.568359"/>
      </g>
     </g>
    </g>
    <g id="xtick_6">
     <g id="line2d_6">
      <g>
       <use xlink:href="#md999261989" x="279.8625" y="224.24375" style="stroke: #000000; stroke-width: 0.8"/>
      </g>
     </g>
     <g id="text_6">
      <!-- dist_4 -->
      <g transform="translate(265.053125 238.842187) scale(0.1 -0.1)">
       <defs>
        <path id="DejaVuSans-34" d="M 2419 4116 
L 825 1625 
L 2419 1625 
L 2419 4116 
z
M 2253 4666 
L 3047 4666 
L 3047 1625 
L 3713 1625 
L 3713 1100 
L 3047 1100 
L 3047 0 
L 2419 0 
L 2419 1100 
L 313 1100 
L 313 1709 
L 2253 4666 
z
" transform="scale(0.015625)"/>
       </defs>
       <use xlink:href="#DejaVuSans-64"/>
       <use xlink:href="#DejaVuSans-69" x="63.476562"/>
       <use xlink:href="#DejaVuSans-73" x="91.259766"/>
       <use xlink:href="#DejaVuSans-74" x="143.359375"/>
       <use xlink:href="#DejaVuSans-5f" x="182.568359"/>
       <use xlink:href="#DejaVuSans-34" x="232.568359"/>
      </g>
     </g>
    </g>
    <g id="xtick_7">
     <g id="line2d_7">
      <g>
       <use xlink:href="#md999261989" x="325.196591" y="224.24375" style="stroke: #000000; stroke-width: 0.8"/>
      </g>
     </g>
     <g id="text_7">
      <!-- dist_5 -->
      <g transform="translate(310.387216 238.842187) scale(0.1 -0.1)">
       <defs>
        <path id="DejaVuSans-35" d="M 691 4666 
L 3169 4666 
L 3169 4134 
L 1269 4134 
L 1269 2991 
Q 1406 3038 1543 3061 
Q 1681 3084 1819 3084 
Q 2600 3084 3056 2656 
Q 3513 2228 3513 1497 
Q 3513 744 3044 326 
Q 2575 -91 1722 -91 
Q 1428 -91 1123 -41 
Q 819 9 494 109 
L 494 744 
Q 775 591 1075 516 
Q 1375 441 1709 441 
Q 2250 441 2565 725 
Q 2881 1009 2881 1497 
Q 2881 1984 2565 2268 
Q 2250 2553 1709 2553 
Q 1456 2553 1204 2497 
Q 953 2441 691 2322 
L 691 4666 
z
" transform="scale(0.015625)"/>
       </defs>
       <use xlink:href="#DejaVuSans-64"/>
       <use xlink:href="#DejaVuSans-69" x="63.476562"/>
       <use xlink:href="#DejaVuSans-73" x="91.259766"/>
       <use xlink:href="#DejaVuSans-74" x="143.359375"/>
       <use xlink:href="#DejaVuSans-5f" x="182.568359"/>
       <use xlink:href="#DejaVuSans-35" x="232.568359"/>
      </g>
     </g>
    </g>
    <g id="xtick_8">
     <g id="line2d_8">
      <g>
       <use xlink:href="#md999261989" x="370.530682" y="224.24375" style="stroke: #000000; stroke-width: 0.8"/>
      </g>
     </g>
     <g id="text_8">
      <!-- dist_6 -->
      <g transform="translate(355.721307 238.842187) scale(0.1 -0.1)">
       <defs>
        <path id="DejaVuSans-36" d="M 2113 2584 
Q 1688 2584 1439 2293 
Q 1191 2003 1191 1497 
Q 1191 994 1439 701 
Q 1688 409 2113 409 
Q 2538 409 2786 701 
Q 3034 994 3034 1497 
Q 3034 2003 2786 2293 
Q 2538 2584 2113 2584 
z
M 3366 4563 
L 3366 3988 
Q 3128 4100 2886 4159 
Q 2644 4219 2406 4219 
Q 1781 4219 1451 3797 
Q 1122 3375 1075 2522 
Q 1259 2794 1537 2939 
Q 1816 3084 2150 3084 
Q 2853 3084 3261 2657 
Q 3669 2231 3669 1497 
Q 3669 778 3244 343 
Q 2819 -91 2113 -91 
Q 1303 -91 875 529 
Q 447 1150 447 2328 
Q 447 3434 972 4092 
Q 1497 4750 2381 4750 
Q 2619 4750 2861 4703 
Q 3103 4656 3366 4563 
z
" transform="scale(0.015625)"/>
       </defs>
       <use xlink:href="#DejaVuSans-64"/>
       <use xlink:href="#DejaVuSans-69" x="63.476562"/>
       <use xlink:href="#DejaVuSans-73" x="91.259766"/>
       <use xlink:href="#DejaVuSans-74" x="143.359375"/>
       <use xlink:href="#DejaVuSans-5f" x="182.568359"/>
       <use xlink:href="#DejaVuSans-36" x="232.568359"/>
      </g>
     </g>
    </g>
    <g id="xtick_9">
     <g id="line2d_9">
      <g>
       <use xlink:href="#md999261989" x="415.864773" y="224.24375" style="stroke: #000000; stroke-width: 0.8"/>
      </g>
     </g>
     <g id="text_9">
      <!-- dist_7 -->
      <g transform="translate(401.055398 238.842187) scale(0.1 -0.1)">
       <defs>
        <path id="DejaVuSans-37" d="M 525 4666 
L 3525 4666 
L 3525 4397 
L 1831 0 
L 1172 0 
L 2766 4134 
L 525 4134 
L 525 4666 
z
" transform="scale(0.015625)"/>
       </defs>
       <use xlink:href="#DejaVuSans-64"/>
       <use xlink:href="#DejaVuSans-69" x="63.476562"/>
       <use xlink:href="#DejaVuSans-73" x="91.259766"/>
       <use xlink:href="#DejaVuSans-74" x="143.359375"/>
       <use xlink:href="#DejaVuSans-5f" x="182.568359"/>
       <use xlink:href="#DejaVuSans-37" x="232.568359"/>
      </g>
     </g>
    </g>
    <g id="xtick_10">
     <g id="line2d_10">
      <g>
       <use xlink:href="#md999261989" x="461.198864" y="224.24375" style="stroke: #000000; stroke-width: 0.8"/>
      </g>
     </g>
     <g id="text_10">
      <!-- dist_8 -->
      <g transform="translate(446.389489 238.842187) scale(0.1 -0.1)">
       <defs>
        <path id="DejaVuSans-38" d="M 2034 2216 
Q 1584 2216 1326 1975 
Q 1069 1734 1069 1313 
Q 1069 891 1326 650 
Q 1584 409 2034 409 
Q 2484 409 2743 651 
Q 3003 894 3003 1313 
Q 3003 1734 2745 1975 
Q 2488 2216 2034 2216 
z
M 1403 2484 
Q 997 2584 770 2862 
Q 544 3141 544 3541 
Q 544 4100 942 4425 
Q 1341 4750 2034 4750 
Q 2731 4750 3128 4425 
Q 3525 4100 3525 3541 
Q 3525 3141 3298 2862 
Q 3072 2584 2669 2484 
Q 3125 2378 3379 2068 
Q 3634 1759 3634 1313 
Q 3634 634 3220 271 
Q 2806 -91 2034 -91 
Q 1263 -91 848 271 
Q 434 634 434 1313 
Q 434 1759 690 2068 
Q 947 2378 1403 2484 
z
M 1172 3481 
Q 1172 3119 1398 2916 
Q 1625 2713 2034 2713 
Q 2441 2713 2670 2916 
Q 2900 3119 2900 3481 
Q 2900 3844 2670 4047 
Q 2441 4250 2034 4250 
Q 1625 4250 1398 4047 
Q 1172 3844 1172 3481 
z
" transform="scale(0.015625)"/>
       </defs>
       <use xlink:href="#DejaVuSans-64"/>
       <use xlink:href="#DejaVuSans-69" x="63.476562"/>
       <use xlink:href="#DejaVuSans-73" x="91.259766"/>
       <use xlink:href="#DejaVuSans-74" x="143.359375"/>
       <use xlink:href="#DejaVuSans-5f" x="182.568359"/>
       <use xlink:href="#DejaVuSans-38" x="232.568359"/>
      </g>
     </g>
    </g>
    <g id="xtick_11">
     <g id="line2d_11">
      <g>
       <use xlink:href="#md999261989" x="506.532955" y="224.24375" style="stroke: #000000; stroke-width: 0.8"/>
      </g>
     </g>
     <g id="text_11">
      <!-- dist_9 -->
      <g transform="translate(491.72358 238.842187) scale(0.1 -0.1)">
       <defs>
        <path id="DejaVuSans-39" d="M 703 97 
L 703 672 
Q 941 559 1184 500 
Q 1428 441 1663 441 
Q 2288 441 2617 861 
Q 2947 1281 2994 2138 
Q 2813 1869 2534 1725 
Q 2256 1581 1919 1581 
Q 1219 1581 811 2004 
Q 403 2428 403 3163 
Q 403 3881 828 4315 
Q 1253 4750 1959 4750 
Q 2769 4750 3195 4129 
Q 3622 3509 3622 2328 
Q 3622 1225 3098 567 
Q 2575 -91 1691 -91 
Q 1453 -91 1209 -44 
Q 966 3 703 97 
z
M 1959 2075 
Q 2384 2075 2632 2365 
Q 2881 2656 2881 3163 
Q 2881 3666 2632 3958 
Q 2384 4250 1959 4250 
Q 1534 4250 1286 3958 
Q 1038 3666 1038 3163 
Q 1038 2656 1286 2365 
Q 1534 2075 1959 2075 
z
" transform="scale(0.015625)"/>
       </defs>
       <use xlink:href="#DejaVuSans-64"/>
       <use xlink:href="#DejaVuSans-69" x="63.476562"/>
       <use xlink:href="#DejaVuSans-73" x="91.259766"/>
       <use xlink:href="#DejaVuSans-74" x="143.359375"/>
       <use xlink:href="#DejaVuSans-5f" x="182.568359"/>
       <use xlink:href="#DejaVuSans-39" x="232.568359"/>
      </g>
     </g>
    </g>
   </g>
   <g id="matplotlib.axis_2">
    <g id="ytick_1">
     <g id="line2d_12">
      <defs>
       <path id="m8ae2fd9ea1" d="M 0 0 
L -3.5 0 
" style="stroke: #000000; stroke-width: 0.8"/>
      </defs>
      <g>
       <use xlink:href="#m8ae2fd9ea1" x="30.525" y="215.228949" style="stroke: #000000; stroke-width: 0.8"/>
      </g>
     </g>
     <g id="text_12">
      <!-- 0 -->
      <g transform="translate(17.1625 219.028168) scale(0.1 -0.1)">
       <use xlink:href="#DejaVuSans-30"/>
      </g>
     </g>
    </g>
    <g id="ytick_2">
     <g id="line2d_13">
      <g>
       <use xlink:href="#m8ae2fd9ea1" x="30.525" y="179.169744" style="stroke: #000000; stroke-width: 0.8"/>
      </g>
     </g>
     <g id="text_13">
      <!-- 2 -->
      <g transform="translate(17.1625 182.968963) scale(0.1 -0.1)">
       <use xlink:href="#DejaVuSans-32"/>
      </g>
     </g>
    </g>
    <g id="ytick_3">
     <g id="line2d_14">
      <g>
       <use xlink:href="#m8ae2fd9ea1" x="30.525" y="143.11054" style="stroke: #000000; stroke-width: 0.8"/>
      </g>
     </g>
     <g id="text_14">
      <!-- 4 -->
      <g transform="translate(17.1625 146.909759) scale(0.1 -0.1)">
       <use xlink:href="#DejaVuSans-34"/>
      </g>
     </g>
    </g>
    <g id="ytick_4">
     <g id="line2d_15">
      <g>
       <use xlink:href="#m8ae2fd9ea1" x="30.525" y="107.051335" style="stroke: #000000; stroke-width: 0.8"/>
      </g>
     </g>
     <g id="text_15">
      <!-- 6 -->
      <g transform="translate(17.1625 110.850554) scale(0.1 -0.1)">
       <use xlink:href="#DejaVuSans-36"/>
      </g>
     </g>
    </g>
    <g id="ytick_5">
     <g id="line2d_16">
      <g>
       <use xlink:href="#m8ae2fd9ea1" x="30.525" y="70.992131" style="stroke: #000000; stroke-width: 0.8"/>
      </g>
     </g>
     <g id="text_16">
      <!-- 8 -->
      <g transform="translate(17.1625 74.791349) scale(0.1 -0.1)">
       <use xlink:href="#DejaVuSans-38"/>
      </g>
     </g>
    </g>
    <g id="ytick_6">
     <g id="line2d_17">
      <g>
       <use xlink:href="#m8ae2fd9ea1" x="30.525" y="34.932926" style="stroke: #000000; stroke-width: 0.8"/>
      </g>
     </g>
     <g id="text_17">
      <!-- 10 -->
      <g transform="translate(10.8 38.732145) scale(0.1 -0.1)">
       <use xlink:href="#DejaVuSans-31"/>
       <use xlink:href="#DejaVuSans-30" x="63.623047"/>
      </g>
     </g>
    </g>
   </g>
   <g id="line2d_18">
    <path d="M 41.858523 70.992131 
L 64.525568 70.992131 
L 64.525568 34.932926 
L 41.858523 34.932926 
L 41.858523 70.992131 
" clip-path="url(#pb10393a252)" style="fill: none; stroke: #1f77b4; stroke-linecap: square"/>
   </g>
   <g id="line2d_19">
    <path d="M 53.192045 70.992131 
L 53.192045 89.021733 
" clip-path="url(#pb10393a252)" style="fill: none; stroke: #1f77b4; stroke-linecap: square"/>
   </g>
   <g id="line2d_20">
    <path d="M 53.192045 34.932926 
L 53.192045 34.932926 
" clip-path="url(#pb10393a252)" style="fill: none; stroke: #1f77b4; stroke-linecap: square"/>
   </g>
   <g id="line2d_21">
    <path d="M 47.525284 89.021733 
L 58.858807 89.021733 
" clip-path="url(#pb10393a252)" style="fill: none; stroke: #1f77b4; stroke-linecap: square"/>
   </g>
   <g id="line2d_22">
    <path d="M 47.525284 34.932926 
L 58.858807 34.932926 
" clip-path="url(#pb10393a252)" style="fill: none; stroke: #1f77b4; stroke-linecap: square"/>
   </g>
   <g id="line2d_23"/>
   <g id="line2d_24">
    <path d="M 87.192614 215.228949 
L 109.859659 215.228949 
L 109.859659 215.228949 
L 87.192614 215.228949 
L 87.192614 215.228949 
" clip-path="url(#pb10393a252)" style="fill: none; stroke: #1f77b4; stroke-linecap: square"/>
   </g>
   <g id="line2d_25">
    <path d="M 98.526136 215.228949 
L 98.526136 215.228949 
" clip-path="url(#pb10393a252)" style="fill: none; stroke: #1f77b4; stroke-linecap: square"/>
   </g>
   <g id="line2d_26">
    <path d="M 98.526136 215.228949 
L 98.526136 215.228949 
" clip-path="url(#pb10393a252)" style="fill: none; stroke: #1f77b4; stroke-linecap: square"/>
   </g>
   <g id="line2d_27">
    <path d="M 92.859375 215.228949 
L 104.192898 215.228949 
" clip-path="url(#pb10393a252)" style="fill: none; stroke: #1f77b4; stroke-linecap: square"/>
   </g>
   <g id="line2d_28">
    <path d="M 92.859375 215.228949 
L 104.192898 215.228949 
" clip-path="url(#pb10393a252)" style="fill: none; stroke: #1f77b4; stroke-linecap: square"/>
   </g>
   <g id="line2d_29">
    <defs>
     <path id="m9b23c36678" d="M 0 3 
C 0.795609 3 1.55874 2.683901 2.12132 2.12132 
C 2.683901 1.55874 3 0.795609 3 0 
C 3 -0.795609 2.683901 -1.55874 2.12132 -2.12132 
C 1.55874 -2.683901 0.795609 -3 0 -3 
C -0.795609 -3 -1.55874 -2.683901 -2.12132 -2.12132 
C -2.683901 -1.55874 -3 -0.795609 -3 0 
C -3 0.795609 -2.683901 1.55874 -2.12132 2.12132 
C -1.55874 2.683901 -0.795609 3 0 3 
z
" style="stroke: #000000"/>
    </defs>
    <g clip-path="url(#pb10393a252)">
     <use xlink:href="#m9b23c36678" x="98.526136" y="197.199347" style="fill-opacity: 0; stroke: #000000"/>
    </g>
   </g>
   <g id="line2d_30">
    <path d="M 132.526705 215.228949 
L 155.19375 215.228949 
L 155.19375 215.228949 
L 132.526705 215.228949 
L 132.526705 215.228949 
" clip-path="url(#pb10393a252)" style="fill: none; stroke: #1f77b4; stroke-linecap: square"/>
   </g>
   <g id="line2d_31">
    <path d="M 143.860227 215.228949 
L 143.860227 215.228949 
" clip-path="url(#pb10393a252)" style="fill: none; stroke: #1f77b4; stroke-linecap: square"/>
   </g>
   <g id="line2d_32">
    <path d="M 143.860227 215.228949 
L 143.860227 215.228949 
" clip-path="url(#pb10393a252)" style="fill: none; stroke: #1f77b4; stroke-linecap: square"/>
   </g>
   <g id="line2d_33">
    <path d="M 138.193466 215.228949 
L 149.526989 215.228949 
" clip-path="url(#pb10393a252)" style="fill: none; stroke: #1f77b4; stroke-linecap: square"/>
   </g>
   <g id="line2d_34">
    <path d="M 138.193466 215.228949 
L 149.526989 215.228949 
" clip-path="url(#pb10393a252)" style="fill: none; stroke: #1f77b4; stroke-linecap: square"/>
   </g>
   <g id="line2d_35">
    <g clip-path="url(#pb10393a252)">
     <use xlink:href="#m9b23c36678" x="143.860227" y="197.199347" style="fill-opacity: 0; stroke: #000000"/>
     <use xlink:href="#m9b23c36678" x="143.860227" y="197.199347" style="fill-opacity: 0; stroke: #000000"/>
     <use xlink:href="#m9b23c36678" x="143.860227" y="197.199347" style="fill-opacity: 0; stroke: #000000"/>
     <use xlink:href="#m9b23c36678" x="143.860227" y="197.199347" style="fill-opacity: 0; stroke: #000000"/>
    </g>
   </g>
   <g id="line2d_36">
    <path d="M 177.860795 215.228949 
L 200.527841 215.228949 
L 200.527841 197.199347 
L 177.860795 197.199347 
L 177.860795 215.228949 
" clip-path="url(#pb10393a252)" style="fill: none; stroke: #1f77b4; stroke-linecap: square"/>
   </g>
   <g id="line2d_37">
    <path d="M 189.194318 215.228949 
L 189.194318 215.228949 
" clip-path="url(#pb10393a252)" style="fill: none; stroke: #1f77b4; stroke-linecap: square"/>
   </g>
   <g id="line2d_38">
    <path d="M 189.194318 197.199347 
L 189.194318 179.169744 
" clip-path="url(#pb10393a252)" style="fill: none; stroke: #1f77b4; stroke-linecap: square"/>
   </g>
   <g id="line2d_39">
    <path d="M 183.527557 215.228949 
L 194.86108 215.228949 
" clip-path="url(#pb10393a252)" style="fill: none; stroke: #1f77b4; stroke-linecap: square"/>
   </g>
   <g id="line2d_40">
    <path d="M 183.527557 179.169744 
L 194.86108 179.169744 
" clip-path="url(#pb10393a252)" style="fill: none; stroke: #1f77b4; stroke-linecap: square"/>
   </g>
   <g id="line2d_41">
    <g clip-path="url(#pb10393a252)">
     <use xlink:href="#m9b23c36678" x="189.194318" y="161.140142" style="fill-opacity: 0; stroke: #000000"/>
     <use xlink:href="#m9b23c36678" x="189.194318" y="143.11054" style="fill-opacity: 0; stroke: #000000"/>
     <use xlink:href="#m9b23c36678" x="189.194318" y="143.11054" style="fill-opacity: 0; stroke: #000000"/>
     <use xlink:href="#m9b23c36678" x="189.194318" y="143.11054" style="fill-opacity: 0; stroke: #000000"/>
     <use xlink:href="#m9b23c36678" x="189.194318" y="161.140142" style="fill-opacity: 0; stroke: #000000"/>
     <use xlink:href="#m9b23c36678" x="189.194318" y="161.140142" style="fill-opacity: 0; stroke: #000000"/>
    </g>
   </g>
   <g id="line2d_42">
    <path d="M 223.194886 215.228949 
L 245.861932 215.228949 
L 245.861932 197.199347 
L 223.194886 197.199347 
L 223.194886 215.228949 
" clip-path="url(#pb10393a252)" style="fill: none; stroke: #1f77b4; stroke-linecap: square"/>
   </g>
   <g id="line2d_43">
    <path d="M 234.528409 215.228949 
L 234.528409 215.228949 
" clip-path="url(#pb10393a252)" style="fill: none; stroke: #1f77b4; stroke-linecap: square"/>
   </g>
   <g id="line2d_44">
    <path d="M 234.528409 197.199347 
L 234.528409 179.169744 
" clip-path="url(#pb10393a252)" style="fill: none; stroke: #1f77b4; stroke-linecap: square"/>
   </g>
   <g id="line2d_45">
    <path d="M 228.861648 215.228949 
L 240.19517 215.228949 
" clip-path="url(#pb10393a252)" style="fill: none; stroke: #1f77b4; stroke-linecap: square"/>
   </g>
   <g id="line2d_46">
    <path d="M 228.861648 179.169744 
L 240.19517 179.169744 
" clip-path="url(#pb10393a252)" style="fill: none; stroke: #1f77b4; stroke-linecap: square"/>
   </g>
   <g id="line2d_47"/>
   <g id="line2d_48">
    <path d="M 268.528977 215.228949 
L 291.196023 215.228949 
L 291.196023 197.199347 
L 268.528977 197.199347 
L 268.528977 215.228949 
" clip-path="url(#pb10393a252)" style="fill: none; stroke: #1f77b4; stroke-linecap: square"/>
   </g>
   <g id="line2d_49">
    <path d="M 279.8625 215.228949 
L 279.8625 215.228949 
" clip-path="url(#pb10393a252)" style="fill: none; stroke: #1f77b4; stroke-linecap: square"/>
   </g>
   <g id="line2d_50">
    <path d="M 279.8625 197.199347 
L 279.8625 197.199347 
" clip-path="url(#pb10393a252)" style="fill: none; stroke: #1f77b4; stroke-linecap: square"/>
   </g>
   <g id="line2d_51">
    <path d="M 274.195739 215.228949 
L 285.529261 215.228949 
" clip-path="url(#pb10393a252)" style="fill: none; stroke: #1f77b4; stroke-linecap: square"/>
   </g>
   <g id="line2d_52">
    <path d="M 274.195739 197.199347 
L 285.529261 197.199347 
" clip-path="url(#pb10393a252)" style="fill: none; stroke: #1f77b4; stroke-linecap: square"/>
   </g>
   <g id="line2d_53"/>
   <g id="line2d_54">
    <path d="M 313.863068 215.228949 
L 336.530114 215.228949 
L 336.530114 215.228949 
L 313.863068 215.228949 
L 313.863068 215.228949 
" clip-path="url(#pb10393a252)" style="fill: none; stroke: #1f77b4; stroke-linecap: square"/>
   </g>
   <g id="line2d_55">
    <path d="M 325.196591 215.228949 
L 325.196591 215.228949 
" clip-path="url(#pb10393a252)" style="fill: none; stroke: #1f77b4; stroke-linecap: square"/>
   </g>
   <g id="line2d_56">
    <path d="M 325.196591 215.228949 
L 325.196591 215.228949 
" clip-path="url(#pb10393a252)" style="fill: none; stroke: #1f77b4; stroke-linecap: square"/>
   </g>
   <g id="line2d_57">
    <path d="M 319.52983 215.228949 
L 330.863352 215.228949 
" clip-path="url(#pb10393a252)" style="fill: none; stroke: #1f77b4; stroke-linecap: square"/>
   </g>
   <g id="line2d_58">
    <path d="M 319.52983 215.228949 
L 330.863352 215.228949 
" clip-path="url(#pb10393a252)" style="fill: none; stroke: #1f77b4; stroke-linecap: square"/>
   </g>
   <g id="line2d_59">
    <g clip-path="url(#pb10393a252)">
     <use xlink:href="#m9b23c36678" x="325.196591" y="197.199347" style="fill-opacity: 0; stroke: #000000"/>
     <use xlink:href="#m9b23c36678" x="325.196591" y="197.199347" style="fill-opacity: 0; stroke: #000000"/>
     <use xlink:href="#m9b23c36678" x="325.196591" y="197.199347" style="fill-opacity: 0; stroke: #000000"/>
     <use xlink:href="#m9b23c36678" x="325.196591" y="197.199347" style="fill-opacity: 0; stroke: #000000"/>
    </g>
   </g>
   <g id="line2d_60">
    <path d="M 359.197159 215.228949 
L 381.864205 215.228949 
L 381.864205 215.228949 
L 359.197159 215.228949 
L 359.197159 215.228949 
" clip-path="url(#pb10393a252)" style="fill: none; stroke: #1f77b4; stroke-linecap: square"/>
   </g>
   <g id="line2d_61">
    <path d="M 370.530682 215.228949 
L 370.530682 215.228949 
" clip-path="url(#pb10393a252)" style="fill: none; stroke: #1f77b4; stroke-linecap: square"/>
   </g>
   <g id="line2d_62">
    <path d="M 370.530682 215.228949 
L 370.530682 215.228949 
" clip-path="url(#pb10393a252)" style="fill: none; stroke: #1f77b4; stroke-linecap: square"/>
   </g>
   <g id="line2d_63">
    <path d="M 364.86392 215.228949 
L 376.197443 215.228949 
" clip-path="url(#pb10393a252)" style="fill: none; stroke: #1f77b4; stroke-linecap: square"/>
   </g>
   <g id="line2d_64">
    <path d="M 364.86392 215.228949 
L 376.197443 215.228949 
" clip-path="url(#pb10393a252)" style="fill: none; stroke: #1f77b4; stroke-linecap: square"/>
   </g>
   <g id="line2d_65">
    <g clip-path="url(#pb10393a252)">
     <use xlink:href="#m9b23c36678" x="370.530682" y="197.199347" style="fill-opacity: 0; stroke: #000000"/>
     <use xlink:href="#m9b23c36678" x="370.530682" y="179.169744" style="fill-opacity: 0; stroke: #000000"/>
    </g>
   </g>
   <g id="line2d_66">
    <path d="M 404.53125 215.228949 
L 427.198295 215.228949 
L 427.198295 215.228949 
L 404.53125 215.228949 
L 404.53125 215.228949 
" clip-path="url(#pb10393a252)" style="fill: none; stroke: #1f77b4; stroke-linecap: square"/>
   </g>
   <g id="line2d_67">
    <path d="M 415.864773 215.228949 
L 415.864773 215.228949 
" clip-path="url(#pb10393a252)" style="fill: none; stroke: #1f77b4; stroke-linecap: square"/>
   </g>
   <g id="line2d_68">
    <path d="M 415.864773 215.228949 
L 415.864773 215.228949 
" clip-path="url(#pb10393a252)" style="fill: none; stroke: #1f77b4; stroke-linecap: square"/>
   </g>
   <g id="line2d_69">
    <path d="M 410.198011 215.228949 
L 421.531534 215.228949 
" clip-path="url(#pb10393a252)" style="fill: none; stroke: #1f77b4; stroke-linecap: square"/>
   </g>
   <g id="line2d_70">
    <path d="M 410.198011 215.228949 
L 421.531534 215.228949 
" clip-path="url(#pb10393a252)" style="fill: none; stroke: #1f77b4; stroke-linecap: square"/>
   </g>
   <g id="line2d_71">
    <g clip-path="url(#pb10393a252)">
     <use xlink:href="#m9b23c36678" x="415.864773" y="197.199347" style="fill-opacity: 0; stroke: #000000"/>
    </g>
   </g>
   <g id="line2d_72">
    <path d="M 449.865341 215.228949 
L 472.532386 215.228949 
L 472.532386 215.228949 
L 449.865341 215.228949 
L 449.865341 215.228949 
" clip-path="url(#pb10393a252)" style="fill: none; stroke: #1f77b4; stroke-linecap: square"/>
   </g>
   <g id="line2d_73">
    <path d="M 461.198864 215.228949 
L 461.198864 215.228949 
" clip-path="url(#pb10393a252)" style="fill: none; stroke: #1f77b4; stroke-linecap: square"/>
   </g>
   <g id="line2d_74">
    <path d="M 461.198864 215.228949 
L 461.198864 215.228949 
" clip-path="url(#pb10393a252)" style="fill: none; stroke: #1f77b4; stroke-linecap: square"/>
   </g>
   <g id="line2d_75">
    <path d="M 455.532102 215.228949 
L 466.865625 215.228949 
" clip-path="url(#pb10393a252)" style="fill: none; stroke: #1f77b4; stroke-linecap: square"/>
   </g>
   <g id="line2d_76">
    <path d="M 455.532102 215.228949 
L 466.865625 215.228949 
" clip-path="url(#pb10393a252)" style="fill: none; stroke: #1f77b4; stroke-linecap: square"/>
   </g>
   <g id="line2d_77">
    <g clip-path="url(#pb10393a252)">
     <use xlink:href="#m9b23c36678" x="461.198864" y="197.199347" style="fill-opacity: 0; stroke: #000000"/>
    </g>
   </g>
   <g id="line2d_78">
    <path d="M 495.199432 215.228949 
L 517.866477 215.228949 
L 517.866477 215.228949 
L 495.199432 215.228949 
L 495.199432 215.228949 
" clip-path="url(#pb10393a252)" style="fill: none; stroke: #1f77b4; stroke-linecap: square"/>
   </g>
   <g id="line2d_79">
    <path d="M 506.532955 215.228949 
L 506.532955 215.228949 
" clip-path="url(#pb10393a252)" style="fill: none; stroke: #1f77b4; stroke-linecap: square"/>
   </g>
   <g id="line2d_80">
    <path d="M 506.532955 215.228949 
L 506.532955 215.228949 
" clip-path="url(#pb10393a252)" style="fill: none; stroke: #1f77b4; stroke-linecap: square"/>
   </g>
   <g id="line2d_81">
    <path d="M 500.866193 215.228949 
L 512.199716 215.228949 
" clip-path="url(#pb10393a252)" style="fill: none; stroke: #1f77b4; stroke-linecap: square"/>
   </g>
   <g id="line2d_82">
    <path d="M 500.866193 215.228949 
L 512.199716 215.228949 
" clip-path="url(#pb10393a252)" style="fill: none; stroke: #1f77b4; stroke-linecap: square"/>
   </g>
   <g id="line2d_83">
    <g clip-path="url(#pb10393a252)">
     <use xlink:href="#m9b23c36678" x="506.532955" y="197.199347" style="fill-opacity: 0; stroke: #000000"/>
    </g>
   </g>
   <g id="line2d_84">
    <path d="M 41.858523 52.962528 
L 64.525568 52.962528 
" clip-path="url(#pb10393a252)" style="fill: none; stroke: #2ca02c"/>
   </g>
   <g id="line2d_85">
    <path d="M 87.192614 215.228949 
L 109.859659 215.228949 
" clip-path="url(#pb10393a252)" style="fill: none; stroke: #2ca02c"/>
   </g>
   <g id="line2d_86">
    <path d="M 132.526705 215.228949 
L 155.19375 215.228949 
" clip-path="url(#pb10393a252)" style="fill: none; stroke: #2ca02c"/>
   </g>
   <g id="line2d_87">
    <path d="M 177.860795 197.199347 
L 200.527841 197.199347 
" clip-path="url(#pb10393a252)" style="fill: none; stroke: #2ca02c"/>
   </g>
   <g id="line2d_88">
    <path d="M 223.194886 215.228949 
L 245.861932 215.228949 
" clip-path="url(#pb10393a252)" style="fill: none; stroke: #2ca02c"/>
   </g>
   <g id="line2d_89">
    <path d="M 268.528977 215.228949 
L 291.196023 215.228949 
" clip-path="url(#pb10393a252)" style="fill: none; stroke: #2ca02c"/>
   </g>
   <g id="line2d_90">
    <path d="M 313.863068 215.228949 
L 336.530114 215.228949 
" clip-path="url(#pb10393a252)" style="fill: none; stroke: #2ca02c"/>
   </g>
   <g id="line2d_91">
    <path d="M 359.197159 215.228949 
L 381.864205 215.228949 
" clip-path="url(#pb10393a252)" style="fill: none; stroke: #2ca02c"/>
   </g>
   <g id="line2d_92">
    <path d="M 404.53125 215.228949 
L 427.198295 215.228949 
" clip-path="url(#pb10393a252)" style="fill: none; stroke: #2ca02c"/>
   </g>
   <g id="line2d_93">
    <path d="M 449.865341 215.228949 
L 472.532386 215.228949 
" clip-path="url(#pb10393a252)" style="fill: none; stroke: #2ca02c"/>
   </g>
   <g id="line2d_94">
    <path d="M 495.199432 215.228949 
L 517.866477 215.228949 
" clip-path="url(#pb10393a252)" style="fill: none; stroke: #2ca02c"/>
   </g>
   <g id="patch_3">
    <path d="M 30.525 224.24375 
L 30.525 25.918125 
" style="fill: none; stroke: #000000; stroke-width: 0.8; stroke-linejoin: miter; stroke-linecap: square"/>
   </g>
   <g id="patch_4">
    <path d="M 529.2 224.24375 
L 529.2 25.918125 
" style="fill: none; stroke: #000000; stroke-width: 0.8; stroke-linejoin: miter; stroke-linecap: square"/>
   </g>
   <g id="patch_5">
    <path d="M 30.525 224.24375 
L 529.2 224.24375 
" style="fill: none; stroke: #000000; stroke-width: 0.8; stroke-linejoin: miter; stroke-linecap: square"/>
   </g>
   <g id="patch_6">
    <path d="M 30.525 25.918125 
L 529.2 25.918125 
" style="fill: none; stroke: #000000; stroke-width: 0.8; stroke-linejoin: miter; stroke-linecap: square"/>
   </g>
   <g id="text_18">
    <!-- boxplot -->
    <g transform="translate(257.519062 19.918125) scale(0.12 -0.12)">
     <defs>
      <path id="DejaVuSans-62" d="M 3116 1747 
Q 3116 2381 2855 2742 
Q 2594 3103 2138 3103 
Q 1681 3103 1420 2742 
Q 1159 2381 1159 1747 
Q 1159 1113 1420 752 
Q 1681 391 2138 391 
Q 2594 391 2855 752 
Q 3116 1113 3116 1747 
z
M 1159 2969 
Q 1341 3281 1617 3432 
Q 1894 3584 2278 3584 
Q 2916 3584 3314 3078 
Q 3713 2572 3713 1747 
Q 3713 922 3314 415 
Q 2916 -91 2278 -91 
Q 1894 -91 1617 61 
Q 1341 213 1159 525 
L 1159 0 
L 581 0 
L 581 4863 
L 1159 4863 
L 1159 2969 
z
" transform="scale(0.015625)"/>
      <path id="DejaVuSans-6f" d="M 1959 3097 
Q 1497 3097 1228 2736 
Q 959 2375 959 1747 
Q 959 1119 1226 758 
Q 1494 397 1959 397 
Q 2419 397 2687 759 
Q 2956 1122 2956 1747 
Q 2956 2369 2687 2733 
Q 2419 3097 1959 3097 
z
M 1959 3584 
Q 2709 3584 3137 3096 
Q 3566 2609 3566 1747 
Q 3566 888 3137 398 
Q 2709 -91 1959 -91 
Q 1206 -91 779 398 
Q 353 888 353 1747 
Q 353 2609 779 3096 
Q 1206 3584 1959 3584 
z
" transform="scale(0.015625)"/>
      <path id="DejaVuSans-78" d="M 3513 3500 
L 2247 1797 
L 3578 0 
L 2900 0 
L 1881 1375 
L 863 0 
L 184 0 
L 1544 1831 
L 300 3500 
L 978 3500 
L 1906 2253 
L 2834 3500 
L 3513 3500 
z
" transform="scale(0.015625)"/>
      <path id="DejaVuSans-70" d="M 1159 525 
L 1159 -1331 
L 581 -1331 
L 581 3500 
L 1159 3500 
L 1159 2969 
Q 1341 3281 1617 3432 
Q 1894 3584 2278 3584 
Q 2916 3584 3314 3078 
Q 3713 2572 3713 1747 
Q 3713 922 3314 415 
Q 2916 -91 2278 -91 
Q 1894 -91 1617 61 
Q 1341 213 1159 525 
z
M 3116 1747 
Q 3116 2381 2855 2742 
Q 2594 3103 2138 3103 
Q 1681 3103 1420 2742 
Q 1159 2381 1159 1747 
Q 1159 1113 1420 752 
Q 1681 391 2138 391 
Q 2594 391 2855 752 
Q 3116 1113 3116 1747 
z
" transform="scale(0.015625)"/>
      <path id="DejaVuSans-6c" d="M 603 4863 
L 1178 4863 
L 1178 0 
L 603 0 
L 603 4863 
z
" transform="scale(0.015625)"/>
     </defs>
     <use xlink:href="#DejaVuSans-62"/>
     <use xlink:href="#DejaVuSans-6f" x="63.476562"/>
     <use xlink:href="#DejaVuSans-78" x="121.533203"/>
     <use xlink:href="#DejaVuSans-70" x="180.712891"/>
     <use xlink:href="#DejaVuSans-6c" x="244.189453"/>
     <use xlink:href="#DejaVuSans-6f" x="271.972656"/>
     <use xlink:href="#DejaVuSans-74" x="333.154297"/>
    </g>
   </g>
  </g>
 </g>
 <defs>
  <clipPath id="pb10393a252">
   <rect x="30.525" y="25.918125" width="498.675" height="198.325625"/>
  </clipPath>
 </defs>
</svg>
